<?xml version="1.0" encoding="utf-8"?>
<!-- Generator: Adobe Illustrator 16.0.0, SVG Export Plug-In . SVG Version: 6.00 Build 0)  -->
<!DOCTYPE svg PUBLIC "-//W3C//DTD SVG 1.1//EN" "http://www.w3.org/Graphics/SVG/1.1/DTD/svg11.dtd">
<svg version="1.1" id="Layer_1" xmlns="http://www.w3.org/2000/svg" xmlns:xlink="http://www.w3.org/1999/xlink" x="0px" y="0px"
	 width="512px" height="512px" viewBox="0 0 512 512" enable-background="new 0 0 512 512" xml:space="preserve">
<g id="Grid" display="none">
	<g display="inline">
		<line fill="none" stroke="#B35047" x1="32" y1="0" x2="32" y2="512"/>
		<line fill="none" stroke="#B35047" x1="64" y1="0" x2="64" y2="512"/>
		<line fill="none" stroke="#B35047" x1="96" y1="0" x2="96" y2="512"/>
		<line fill="none" stroke="#B35047" x1="128" y1="0" x2="128" y2="512"/>
		<line fill="none" stroke="#B35047" x1="160" y1="0" x2="160" y2="512"/>
		<line fill="none" stroke="#B35047" x1="192" y1="0" x2="192" y2="512"/>
		<line fill="none" stroke="#B35047" x1="224" y1="0" x2="224" y2="512"/>
		<line fill="none" stroke="#B35047" x1="256" y1="0" x2="256" y2="512"/>
		<line fill="none" stroke="#B35047" x1="288" y1="0" x2="288" y2="512"/>
		<line fill="none" stroke="#B35047" x1="320" y1="0" x2="320" y2="512"/>
		<line fill="none" stroke="#B35047" x1="352" y1="0" x2="352" y2="512"/>
		<line fill="none" stroke="#B35047" x1="384" y1="0" x2="384" y2="512"/>
		<line fill="none" stroke="#B35047" x1="416" y1="0" x2="416" y2="512"/>
		<line fill="none" stroke="#B35047" x1="448" y1="0" x2="448" y2="512"/>
		<line fill="none" stroke="#B35047" x1="480" y1="0" x2="480" y2="512"/>
		<line fill="none" stroke="#B35047" x1="0" y1="32" x2="512" y2="32"/>
		<line fill="none" stroke="#B35047" x1="0" y1="64" x2="512" y2="64"/>
		<line fill="none" stroke="#B35047" x1="0" y1="96" x2="512" y2="96"/>
		<line fill="none" stroke="#B35047" x1="0" y1="128" x2="512" y2="128"/>
		<line fill="none" stroke="#B35047" x1="0" y1="160" x2="512" y2="160"/>
		<line fill="none" stroke="#B35047" x1="0" y1="192" x2="512" y2="192"/>
		<line fill="none" stroke="#B35047" x1="0" y1="224" x2="512" y2="224"/>
		<line fill="none" stroke="#B35047" x1="0" y1="256" x2="512" y2="256"/>
		<line fill="none" stroke="#B35047" x1="0" y1="288" x2="512" y2="288"/>
		<line fill="none" stroke="#B35047" x1="0" y1="320" x2="512" y2="320"/>
		<line fill="none" stroke="#B35047" x1="0" y1="352" x2="512" y2="352"/>
		<line fill="none" stroke="#B35047" x1="0" y1="384" x2="512" y2="384"/>
		<line fill="none" stroke="#B35047" x1="0" y1="416" x2="512" y2="416"/>
		<line fill="none" stroke="#B35047" x1="0" y1="448" x2="512" y2="448"/>
		<line fill="none" stroke="#B35047" x1="0" y1="480" x2="512" y2="480"/>
		<rect fill="none" stroke="#B35047" width="512" height="512"/>
	</g>
</g>
<g>
	<path fill="#000100" d="M269.76,79.95l-8.805,8.082l-95.834,88.114c0,0,35.299,20.519,58.758,3.333
		c23.428-17.28,59.214-45.802,59.214-45.802s10.126,15.188,24.089,21.116c5.943,2.484,15.031,3.601,23.585,4.01
		c11.761,0.723,22.453,0.047,22.453,0.047l74.402,78.962L513,237.829V79.636L269.76,79.95z"/>
	<path fill="#000100" d="M225.216,318.852c-10.236-10.314-26.777-10.314-36.966,0l-14.592,14.653l-5.283,5.315
		c-10.173,10.22-10.173,26.855,0,37.17c10.22,10.22,26.792,10.22,36.998,0l1.682-1.762l18.161-18.207
		C235.451,345.707,235.451,329.103,225.216,318.852z"/>
	<path fill="#000100" d="M230.357,377.846c-4.749,0-9.151,1.446-12.862,3.962c-0.55,0.377-1.085,0.881-1.604,1.32
		c-1.902,1.447-3.522,3.177-4.858,5.189c-2.422,3.679-3.868,8.145-3.868,12.924c0,12.831,10.394,23.271,23.192,23.271
		c7.279,0,13.742-3.459,17.987-8.773c3.176-3.993,5.22-8.993,5.22-14.497C253.564,388.317,243.156,377.846,230.357,377.846z"/>
	<path fill="#000100" d="M345.264,173.504c-14.277,0.11-36.762-0.613-49.025-5.833c-18.868-7.956-18.208-12.186-18.208-12.186
		s-13.616,11.997-45.221,35.252c-41.525,30.598-91.997-10.157-91.997-10.157L247.873,79.148L1,78.865v161.81l70.787-0.551
		c6.478-8.49,16.62-14.01,28.098-14.01c19.45,0,35.22,15.803,35.314,35.284l3.443-3.381c14.23-14.324,37.956-13.664,52.972,1.493
		c10.598,10.63,14.025,25.566,10.268,38.46c11.887-2.013,24.513,1.541,33.68,10.786c15.079,15.126,15.079,39.717,0,54.874
		l-3.616,3.617c17.909,0.849,32.186,15.691,32.186,33.993c0,8.428-3.113,16.164-8.208,22.139l1.069,1.069
		c11.604,11.729,30.504,11.729,42.107,0c11.227-11.289,11.541-29.214,1.163-40.975l0.221-0.283
		c11.667,10.44,29.528,10.188,40.786-1.069c11.384-11.51,11.572-30,0.535-41.729l0.094-0.063
		c11.729,10.975,30.063,10.881,41.479-0.629c11.667-11.729,11.667-30.724,0.031-42.358c11.636,11.635,30.504,11.635,42.076,0
		c11.635-11.698,11.635-30.677,0-42.391L345.264,173.504z"/>
	<path fill="#000100" d="M180.467,307.876c10.188-10.188,10.188-26.855,0-37.139s-26.777-10.283-36.966,0l-10.786,10.818
		l-9.041,9.088c-10.236,10.283-10.236,27.013,0,37.265c10.205,10.251,26.714,10.251,36.935,0l4.764-4.843L180.467,307.876z"/>
	<path fill="#000100" d="M118.878,277.813c2.028-2.327,3.569-5.063,4.607-8.066c0.802-2.422,1.368-5,1.368-7.72
		c0-13.381-10.771-24.215-24.025-24.215c-3.899,0-7.516,1.022-10.755,2.642c-7.862,4.01-13.318,12.123-13.318,21.573
		c0,13.364,10.739,24.214,24.073,24.214c6.022,0,11.446-2.296,15.645-6.007L118.878,277.813z"/>
</g>
</svg>
