<?xml version="1.0" encoding="utf-8"?>
<!-- Generator: Adobe Illustrator 16.0.0, SVG Export Plug-In . SVG Version: 6.00 Build 0)  -->
<!DOCTYPE svg PUBLIC "-//W3C//DTD SVG 1.1//EN" "http://www.w3.org/Graphics/SVG/1.1/DTD/svg11.dtd">
<svg version="1.1" id="Layer_1" xmlns="http://www.w3.org/2000/svg" xmlns:xlink="http://www.w3.org/1999/xlink" x="0px" y="0px"
	 width="512px" height="512px" viewBox="0 0 512 512" enable-background="new 0 0 512 512" xml:space="preserve">
<g id="Grid" display="none">
	<g display="inline">
		<line fill="none" stroke="#B35047" x1="32" y1="0" x2="32" y2="512"/>
		<line fill="none" stroke="#B35047" x1="64" y1="0" x2="64" y2="512"/>
		<line fill="none" stroke="#B35047" x1="96" y1="0" x2="96" y2="512"/>
		<line fill="none" stroke="#B35047" x1="128" y1="0" x2="128" y2="512"/>
		<line fill="none" stroke="#B35047" x1="160" y1="0" x2="160" y2="512"/>
		<line fill="none" stroke="#B35047" x1="192" y1="0" x2="192" y2="512"/>
		<line fill="none" stroke="#B35047" x1="224" y1="0" x2="224" y2="512"/>
		<line fill="none" stroke="#B35047" x1="256" y1="0" x2="256" y2="512"/>
		<line fill="none" stroke="#B35047" x1="288" y1="0" x2="288" y2="512"/>
		<line fill="none" stroke="#B35047" x1="320" y1="0" x2="320" y2="512"/>
		<line fill="none" stroke="#B35047" x1="352" y1="0" x2="352" y2="512"/>
		<line fill="none" stroke="#B35047" x1="384" y1="0" x2="384" y2="512"/>
		<line fill="none" stroke="#B35047" x1="416" y1="0" x2="416" y2="512"/>
		<line fill="none" stroke="#B35047" x1="448" y1="0" x2="448" y2="512"/>
		<line fill="none" stroke="#B35047" x1="480" y1="0" x2="480" y2="512"/>
		<line fill="none" stroke="#B35047" x1="0" y1="32" x2="512" y2="32"/>
		<line fill="none" stroke="#B35047" x1="0" y1="64" x2="512" y2="64"/>
		<line fill="none" stroke="#B35047" x1="0" y1="96" x2="512" y2="96"/>
		<line fill="none" stroke="#B35047" x1="0" y1="128" x2="512" y2="128"/>
		<line fill="none" stroke="#B35047" x1="0" y1="160" x2="512" y2="160"/>
		<line fill="none" stroke="#B35047" x1="0" y1="192" x2="512" y2="192"/>
		<line fill="none" stroke="#B35047" x1="0" y1="224" x2="512" y2="224"/>
		<line fill="none" stroke="#B35047" x1="0" y1="256" x2="512" y2="256"/>
		<line fill="none" stroke="#B35047" x1="0" y1="288" x2="512" y2="288"/>
		<line fill="none" stroke="#B35047" x1="0" y1="320" x2="512" y2="320"/>
		<line fill="none" stroke="#B35047" x1="0" y1="352" x2="512" y2="352"/>
		<line fill="none" stroke="#B35047" x1="0" y1="384" x2="512" y2="384"/>
		<line fill="none" stroke="#B35047" x1="0" y1="416" x2="512" y2="416"/>
		<line fill="none" stroke="#B35047" x1="0" y1="448" x2="512" y2="448"/>
		<line fill="none" stroke="#B35047" x1="0" y1="480" x2="512" y2="480"/>
		<rect fill="none" stroke="#B35047" width="512" height="512"/>
	</g>
</g>
<path fill="#1D1D1B" d="M509.85,136.548c-0.686-1.121-11.771-20.491-34.07-40.36c-22.172-19.806-56.49-40.422-101.77-40.422
	c-45.25,0-79.225,20.709-100.962,40.578c-6.696,6.135-12.363,12.239-17.003,17.72c-4.796-5.543-10.65-11.678-17.564-17.875
	c-22.173-19.806-56.553-40.422-101.771-40.422c-45.249,0-79.255,20.709-100.961,40.578c-21.861,19.962-32.512,39.394-33.135,40.515
	l-2.304,8.969v292.234l35.003,8.906l0.062,0.062c0.498-0.936,9.903-17.16,27.155-32.326c17.439-15.291,41.73-29.336,74.18-29.336
	c33.508,0,58.982,15.043,76.92,30.955c8.906,7.91,15.695,15.914,20.18,21.861c2.242,2.928,3.862,5.357,4.92,6.977
	c0.436,0.717,0.778,1.215,1.028,1.588c3.083,5.979,9.311,10.059,16.536,10.059c7.349,0,13.703-4.234,16.754-10.4
	c1.806-3.115,11.024-17.814,26.845-31.703c17.377-15.291,41.666-29.336,74.117-29.336c33.508,0,58.98,15.043,76.92,30.955
	c8.906,7.91,15.695,15.914,20.18,21.861c2.242,2.928,3.924,5.357,4.951,6.977c0.529,0.811,0.902,1.432,1.152,1.807
	c0.094,0.186,0.186,0.311,0.186,0.373l0.062-0.031l34.848-9.248V145.829L509.85,136.548z M237.608,387.674
	C215.436,368.117,181.429,348,136.709,348h-0.062c-43.91,0-77.231,19.494-98.968,38.803V151.06
	c3.799-5.792,12.208-17.47,24.851-28.588c17.439-15.259,41.73-29.304,74.18-29.335c33.508,0,58.982,15.073,76.92,30.955
	c8.906,7.91,15.695,15.945,20.18,21.862c1.557,2.055,2.803,3.861,3.799,5.356V387.674z M474.908,387.674
	C452.766,368.117,418.729,348,374.01,348c-43.941-0.031-77.232,19.494-99.031,38.803V151.06
	c3.799-5.792,12.207-17.439,24.914-28.588c17.377-15.259,41.666-29.304,74.117-29.335c33.508,0,58.98,15.073,76.92,30.955
	c8.906,7.91,15.695,15.945,20.18,21.862c1.557,2.055,2.863,3.861,3.799,5.325V387.674z M60.039,168.998l15.322,20.118l1.993,2.803
	c0.965-0.623,21.176-14.886,61.972-14.917c21.768,0,37.931,4.08,48.55,8.003c5.325,1.931,9.187,3.862,11.647,5.232
	c1.246,0.685,2.087,1.215,2.616,1.557c0.249,0.125,0.405,0.249,0.467,0.28l0.031,0.031h0.031l4.609-6.509l12.208-16.785
	c-1.682-1.277-29.273-20.585-80.159-20.554C88.409,148.195,61.783,167.596,60.039,168.998 M77.354,254.077
	c0.965-0.623,21.176-14.917,61.972-14.948c21.768,0,37.962,4.111,48.581,8.035c5.263,1.931,9.156,3.861,11.616,5.231
	c1.246,0.685,2.118,1.184,2.616,1.526c0.249,0.156,0.405,0.28,0.467,0.343h0.062l4.484-6.384l12.301-16.91l0,0
	c-1.682-1.277-29.242-20.584-80.127-20.554c-50.917-0.031-77.542,19.308-79.287,20.741l17.439,22.858l-2.118-2.772L77.354,254.077z
	 M60.039,293.314l15.882,20.865l-0.561-0.746l1.993,2.803l0.125-0.062c1.744-1.184,21.924-14.824,61.847-14.855
	c21.768,0,37.962,4.08,48.55,8.004c5.294,1.93,9.187,3.861,11.647,5.232c1.246,0.684,2.118,1.182,2.616,1.525
	c0.249,0.156,0.405,0.279,0.467,0.311c0,0,0.031,0,0.031,0.031h0.031l4.671-6.602l12.145-16.691
	c-1.713-1.309-29.273-20.585-80.159-20.555C88.377,272.544,61.814,291.883,60.039,293.314 M441.586,192.105l4.734-6.727
	l-4.859,6.664l0,0C441.523,192.105,441.586,192.105,441.586,192.105 M314.279,189.115l1.992,2.803l0,0
	c0.967-0.623,21.178-14.886,61.941-14.917c21.768,0,37.961,4.08,48.551,8.003c5.293,1.931,9.186,3.862,11.646,5.232
	c1.246,0.685,2.117,1.215,2.615,1.557c0.188,0.093,0.373,0.187,0.436,0.249l16.91-23.231c-1.713-1.277-29.242-20.585-80.158-20.554
	c-50.916-0.062-77.512,19.339-79.287,20.74l17.408,22.858L314.279,189.115z M316.271,254.077
	c0.967-0.623,21.146-14.917,61.941-14.948c21.768,0,37.961,4.111,48.551,8.035c5.293,1.931,9.217,3.861,11.646,5.231
	c1.246,0.685,2.117,1.184,2.615,1.526c0.219,0.156,0.373,0.218,0.436,0.28c0.062,0.062,0.125,0.062,0.125,0.062l4.547-6.478
	l12.238-16.816l0,0c-1.713-1.277-29.242-20.584-80.158-20.554c-50.916-0.031-77.512,19.308-79.287,20.741l17.408,22.858
	l-2.055-2.741L316.271,254.077z M298.926,293.314l15.354,20.18l1.992,2.742l0.062-0.062c1.744-1.184,21.986-14.824,61.879-14.855
	c21.768,0,37.961,4.08,48.551,8.004c5.293,1.93,9.186,3.861,11.646,5.232c1.246,0.684,2.117,1.182,2.615,1.525
	c0.25,0.156,0.436,0.279,0.498,0.311c0,0,0,0,0,0.031h0.062l4.609-6.602l12.176-16.691c-1.713-1.309-29.242-20.585-80.158-20.555
	C327.297,272.544,300.701,291.883,298.926,293.314"/>
</svg>
