<?xml version="1.0" encoding="utf-8"?>
<!-- Generator: Adobe Illustrator 16.0.0, SVG Export Plug-In . SVG Version: 6.00 Build 0)  -->
<!DOCTYPE svg PUBLIC "-//W3C//DTD SVG 1.1//EN" "http://www.w3.org/Graphics/SVG/1.1/DTD/svg11.dtd">
<svg version="1.1" id="Layer_1" xmlns="http://www.w3.org/2000/svg" xmlns:xlink="http://www.w3.org/1999/xlink" x="0px" y="0px"
	 width="512px" height="512px" viewBox="0 0 512 512" enable-background="new 0 0 512 512" xml:space="preserve">
<g id="Layer_1_1_">
	<g id="Grid" display="none">
		<g display="inline">
			<line fill="none" stroke="#B35047" x1="32" y1="0" x2="32" y2="512"/>
			<line fill="none" stroke="#B35047" x1="64" y1="0" x2="64" y2="512"/>
			<line fill="none" stroke="#B35047" x1="96" y1="0" x2="96" y2="512"/>
			<line fill="none" stroke="#B35047" x1="128" y1="0" x2="128" y2="512"/>
			<line fill="none" stroke="#B35047" x1="160" y1="0" x2="160" y2="512"/>
			<line fill="none" stroke="#B35047" x1="192" y1="0" x2="192" y2="512"/>
			<line fill="none" stroke="#B35047" x1="224" y1="0" x2="224" y2="512"/>
			<line fill="none" stroke="#B35047" x1="256" y1="0" x2="256" y2="512"/>
			<line fill="none" stroke="#B35047" x1="288" y1="0" x2="288" y2="512"/>
			<line fill="none" stroke="#B35047" x1="320" y1="0" x2="320" y2="512"/>
			<line fill="none" stroke="#B35047" x1="352" y1="0" x2="352" y2="512"/>
			<line fill="none" stroke="#B35047" x1="384" y1="0" x2="384" y2="512"/>
			<line fill="none" stroke="#B35047" x1="416" y1="0" x2="416" y2="512"/>
			<line fill="none" stroke="#B35047" x1="448" y1="0" x2="448" y2="512"/>
			<line fill="none" stroke="#B35047" x1="480" y1="0" x2="480" y2="512"/>
			<line fill="none" stroke="#B35047" x1="0" y1="32" x2="512" y2="32"/>
			<line fill="none" stroke="#B35047" x1="0" y1="64" x2="512" y2="64"/>
			<line fill="none" stroke="#B35047" x1="0" y1="96" x2="512" y2="96"/>
			<line fill="none" stroke="#B35047" x1="0" y1="128" x2="512" y2="128"/>
			<line fill="none" stroke="#B35047" x1="0" y1="160" x2="512" y2="160"/>
			<line fill="none" stroke="#B35047" x1="0" y1="192" x2="512" y2="192"/>
			<line fill="none" stroke="#B35047" x1="0" y1="224" x2="512" y2="224"/>
			<line fill="none" stroke="#B35047" x1="0" y1="256" x2="512" y2="256"/>
			<line fill="none" stroke="#B35047" x1="0" y1="288" x2="512" y2="288"/>
			<line fill="none" stroke="#B35047" x1="0" y1="320" x2="512" y2="320"/>
			<line fill="none" stroke="#B35047" x1="0" y1="352" x2="512" y2="352"/>
			<line fill="none" stroke="#B35047" x1="0" y1="384" x2="512" y2="384"/>
			<line fill="none" stroke="#B35047" x1="0" y1="416" x2="512" y2="416"/>
			<line fill="none" stroke="#B35047" x1="0" y1="448" x2="512" y2="448"/>
			<line fill="none" stroke="#B35047" x1="0" y1="480" x2="512" y2="480"/>
			<rect fill="none" stroke="#B35047" width="512" height="512"/>
		</g>
	</g>
</g>
<path fill="#000100" d="M78.448,416.209v22.514c23.661,15.797,66.085,26.158,123.408,26.158c57.277,0,99.669-10.361,123.378-26.158
	v-20.598c21.604-12.688,38.404-29.99,47.385-52.223c3.328,0.439,6.908,0.754,10.802,0.785c59.538,0,129.563-78.85,129.563-145.232
	c0-59.412-56.334-88.647-110.91-94.017c-1.068-26-2.826-42.219-2.826-42.219c0-20.521-88.93-37.117-198.632-37.117
	c-109.686,0-198.6,16.596-198.6,37.117c0,0-8.683,173.792,24.744,276.162C34.062,383.865,52.997,402.361,78.448,416.209z
	 M402.576,173.615c32.375,3.329,61.987,16.188,61.987,52.378c0,43.068-41.953,102.605-80.577,103.265
	C397.74,275.436,401.948,218.77,402.576,173.615z M201.856,71.732c82.398,0,149.096,9.562,149.096,21.337
	c0,11.744-66.697,21.243-149.096,21.243c-82.382,0-149.142-9.499-149.142-21.243C52.714,81.294,119.475,71.732,201.856,71.732z"/>
</svg>
