<?xml version="1.0" encoding="utf-8"?>
<!-- Generator: Adobe Illustrator 16.0.0, SVG Export Plug-In . SVG Version: 6.00 Build 0)  -->
<!DOCTYPE svg PUBLIC "-//W3C//DTD SVG 1.1//EN" "http://www.w3.org/Graphics/SVG/1.1/DTD/svg11.dtd">
<svg version="1.1" id="Layer_1" xmlns="http://www.w3.org/2000/svg" xmlns:xlink="http://www.w3.org/1999/xlink" x="0px" y="0px"
	 width="512px" height="512px" viewBox="0 0 512 512" enable-background="new 0 0 512 512" xml:space="preserve">
<g id="Grid" display="none">
	<g display="inline">
		<line fill="none" stroke="#B35047" x1="32" y1="0" x2="32" y2="512"/>
		<line fill="none" stroke="#B35047" x1="64" y1="0" x2="64" y2="512"/>
		<line fill="none" stroke="#B35047" x1="96" y1="0" x2="96" y2="512"/>
		<line fill="none" stroke="#B35047" x1="128" y1="0" x2="128" y2="512"/>
		<line fill="none" stroke="#B35047" x1="160" y1="0" x2="160" y2="512"/>
		<line fill="none" stroke="#B35047" x1="192" y1="0" x2="192" y2="512"/>
		<line fill="none" stroke="#B35047" x1="224" y1="0" x2="224" y2="512"/>
		<line fill="none" stroke="#B35047" x1="256" y1="0" x2="256" y2="512"/>
		<line fill="none" stroke="#B35047" x1="288" y1="0" x2="288" y2="512"/>
		<line fill="none" stroke="#B35047" x1="320" y1="0" x2="320" y2="512"/>
		<line fill="none" stroke="#B35047" x1="352" y1="0" x2="352" y2="512"/>
		<line fill="none" stroke="#B35047" x1="384" y1="0" x2="384" y2="512"/>
		<line fill="none" stroke="#B35047" x1="416" y1="0" x2="416" y2="512"/>
		<line fill="none" stroke="#B35047" x1="448" y1="0" x2="448" y2="512"/>
		<line fill="none" stroke="#B35047" x1="480" y1="0" x2="480" y2="512"/>
		<line fill="none" stroke="#B35047" x1="0" y1="32" x2="512" y2="32"/>
		<line fill="none" stroke="#B35047" x1="0" y1="64" x2="512" y2="64"/>
		<line fill="none" stroke="#B35047" x1="0" y1="96" x2="512" y2="96"/>
		<line fill="none" stroke="#B35047" x1="0" y1="128" x2="512" y2="128"/>
		<line fill="none" stroke="#B35047" x1="0" y1="160" x2="512" y2="160"/>
		<line fill="none" stroke="#B35047" x1="0" y1="192" x2="512" y2="192"/>
		<line fill="none" stroke="#B35047" x1="0" y1="224" x2="512" y2="224"/>
		<line fill="none" stroke="#B35047" x1="0" y1="256" x2="512" y2="256"/>
		<line fill="none" stroke="#B35047" x1="0" y1="288" x2="512" y2="288"/>
		<line fill="none" stroke="#B35047" x1="0" y1="320" x2="512" y2="320"/>
		<line fill="none" stroke="#B35047" x1="0" y1="352" x2="512" y2="352"/>
		<line fill="none" stroke="#B35047" x1="0" y1="384" x2="512" y2="384"/>
		<line fill="none" stroke="#B35047" x1="0" y1="416" x2="512" y2="416"/>
		<line fill="none" stroke="#B35047" x1="0" y1="448" x2="512" y2="448"/>
		<line fill="none" stroke="#B35047" x1="0" y1="480" x2="512" y2="480"/>
		<rect fill="none" stroke="#B35047" width="512" height="512"/>
	</g>
</g>
<g>
	<path fill="#1D1D1B" d="M272.375,232.281V231.5c-0.156,0.25-0.375,0.531-0.531,0.781H272.375z"/>
	<path fill="#1D1D1B" d="M448,0H64C28.688,0,0,28.656,0,64v384c0,35.344,28.688,64,64,64h384c35.375,0,64-28.656,64-64V64
		C512,28.656,483.375,0,448,0z M155.75,425.375H80.688V199.5h75.062V425.375z M118.188,168.688h-0.438
		c-25.219,0-41.531-17.375-41.531-39c0-22.219,16.781-39.062,42.469-39.062s41.531,16.844,42,39.062
		C160.688,151.312,144.375,168.688,118.188,168.688z M426.438,425.375h-75.062V304.562c0-30.375-10.875-51.125-38.062-51.125
		c-20.719,0-33.062,14-38.469,27.5c-2,4.812-2.469,11.562-2.469,18.25v126.188h-75.094c0,0,0.969-204.688,0-225.875h75.094v32
		c10-15.375,27.75-37.281,67.625-37.281c49.406,0,86.438,32.281,86.438,101.656V425.375z"/>
</g>
</svg>
