<?xml version="1.0" encoding="utf-8"?>
<!-- Generator: Adobe Illustrator 16.0.0, SVG Export Plug-In . SVG Version: 6.00 Build 0)  -->
<!DOCTYPE svg PUBLIC "-//W3C//DTD SVG 1.1//EN" "http://www.w3.org/Graphics/SVG/1.1/DTD/svg11.dtd">
<svg version="1.1" xmlns="http://www.w3.org/2000/svg" xmlns:xlink="http://www.w3.org/1999/xlink" x="0px" y="0px" width="512px"
	 height="512px" viewBox="0 0 512 512" enable-background="new 0 0 512 512" xml:space="preserve">
<g id="Layer_1">
	<g id="Grid" display="none">
		<g display="inline">
			<line fill="none" stroke="#B35047" x1="32" y1="0" x2="32" y2="512"/>
			<line fill="none" stroke="#B35047" x1="64" y1="0" x2="64" y2="512"/>
			<line fill="none" stroke="#B35047" x1="96" y1="0" x2="96" y2="512"/>
			<line fill="none" stroke="#B35047" x1="128" y1="0" x2="128" y2="512"/>
			<line fill="none" stroke="#B35047" x1="160" y1="0" x2="160" y2="512"/>
			<line fill="none" stroke="#B35047" x1="192" y1="0" x2="192" y2="512"/>
			<line fill="none" stroke="#B35047" x1="224" y1="0" x2="224" y2="512"/>
			<line fill="none" stroke="#B35047" x1="256" y1="0" x2="256" y2="512"/>
			<line fill="none" stroke="#B35047" x1="288" y1="0" x2="288" y2="512"/>
			<line fill="none" stroke="#B35047" x1="320" y1="0" x2="320" y2="512"/>
			<line fill="none" stroke="#B35047" x1="352" y1="0" x2="352" y2="512"/>
			<line fill="none" stroke="#B35047" x1="384" y1="0" x2="384" y2="512"/>
			<line fill="none" stroke="#B35047" x1="416" y1="0" x2="416" y2="512"/>
			<line fill="none" stroke="#B35047" x1="448" y1="0" x2="448" y2="512"/>
			<line fill="none" stroke="#B35047" x1="480" y1="0" x2="480" y2="512"/>
			<line fill="none" stroke="#B35047" x1="0" y1="32" x2="512" y2="32"/>
			<line fill="none" stroke="#B35047" x1="0" y1="64" x2="512" y2="64"/>
			<line fill="none" stroke="#B35047" x1="0" y1="96" x2="512" y2="96"/>
			<line fill="none" stroke="#B35047" x1="0" y1="128" x2="512" y2="128"/>
			<line fill="none" stroke="#B35047" x1="0" y1="160" x2="512" y2="160"/>
			<line fill="none" stroke="#B35047" x1="0" y1="192" x2="512" y2="192"/>
			<line fill="none" stroke="#B35047" x1="0" y1="224" x2="512" y2="224"/>
			<line fill="none" stroke="#B35047" x1="0" y1="256" x2="512" y2="256"/>
			<line fill="none" stroke="#B35047" x1="0" y1="288" x2="512" y2="288"/>
			<line fill="none" stroke="#B35047" x1="0" y1="320" x2="512" y2="320"/>
			<line fill="none" stroke="#B35047" x1="0" y1="352" x2="512" y2="352"/>
			<line fill="none" stroke="#B35047" x1="0" y1="384" x2="512" y2="384"/>
			<line fill="none" stroke="#B35047" x1="0" y1="416" x2="512" y2="416"/>
			<line fill="none" stroke="#B35047" x1="0" y1="448" x2="512" y2="448"/>
			<line fill="none" stroke="#B35047" x1="0" y1="480" x2="512" y2="480"/>
			<rect fill="none" stroke="#B35047" width="512" height="512"/>
		</g>
	</g>
</g>
<g id="Icon">
	<path fill="#1D1D1B" d="M448,0H64C28.656,0,0,28.656,0,64v384c0,35.344,28.656,64,64,64h384c35.344,0,64-28.656,64-64V64
		C512,28.656,483.344,0,448,0z M434.547,287.219h-70.344v188.219h-71.656V287.219h-49.766v-67.781h49.766c0,0,0-27.781,0-57.875
		c0-45.5,29.406-87.281,97.141-87.281c27.438,0,47.719,2.625,47.719,2.625l-1.594,63.312c0,0-20.688-0.219-43.266-0.219
		c-24.422,0-28.344,11.281-28.344,29.969c0,2.406,0,3.188,0,3.156c0,5.25,0,18,0,46.312h73.547L434.547,287.219z"/>
</g>
</svg>
