<?xml version="1.0" encoding="utf-8"?>
<!-- Generator: Adobe Illustrator 16.0.0, SVG Export Plug-In . SVG Version: 6.00 Build 0)  -->
<!DOCTYPE svg PUBLIC "-//W3C//DTD SVG 1.1//EN" "http://www.w3.org/Graphics/SVG/1.1/DTD/svg11.dtd">
<svg version="1.1" id="Layer_1" xmlns="http://www.w3.org/2000/svg" xmlns:xlink="http://www.w3.org/1999/xlink" x="0px" y="0px"
	 width="512px" height="512px" viewBox="0 0 512 512" enable-background="new 0 0 512 512" xml:space="preserve">
<g id="Grid" display="none">
	<g display="inline">
		<line fill="none" stroke="#B35047" x1="32" y1="0" x2="32" y2="512"/>
		<line fill="none" stroke="#B35047" x1="64" y1="0" x2="64" y2="512"/>
		<line fill="none" stroke="#B35047" x1="96" y1="0" x2="96" y2="512"/>
		<line fill="none" stroke="#B35047" x1="128" y1="0" x2="128" y2="512"/>
		<line fill="none" stroke="#B35047" x1="160" y1="0" x2="160" y2="512"/>
		<line fill="none" stroke="#B35047" x1="192" y1="0" x2="192" y2="512"/>
		<line fill="none" stroke="#B35047" x1="224" y1="0" x2="224" y2="512"/>
		<line fill="none" stroke="#B35047" x1="256" y1="0" x2="256" y2="512"/>
		<line fill="none" stroke="#B35047" x1="288" y1="0" x2="288" y2="512"/>
		<line fill="none" stroke="#B35047" x1="320" y1="0" x2="320" y2="512"/>
		<line fill="none" stroke="#B35047" x1="352" y1="0" x2="352" y2="512"/>
		<line fill="none" stroke="#B35047" x1="384" y1="0" x2="384" y2="512"/>
		<line fill="none" stroke="#B35047" x1="416" y1="0" x2="416" y2="512"/>
		<line fill="none" stroke="#B35047" x1="448" y1="0" x2="448" y2="512"/>
		<line fill="none" stroke="#B35047" x1="480" y1="0" x2="480" y2="512"/>
		<line fill="none" stroke="#B35047" x1="0" y1="32" x2="512" y2="32"/>
		<line fill="none" stroke="#B35047" x1="0" y1="64" x2="512" y2="64"/>
		<line fill="none" stroke="#B35047" x1="0" y1="96" x2="512" y2="96"/>
		<line fill="none" stroke="#B35047" x1="0" y1="128" x2="512" y2="128"/>
		<line fill="none" stroke="#B35047" x1="0" y1="160" x2="512" y2="160"/>
		<line fill="none" stroke="#B35047" x1="0" y1="192" x2="512" y2="192"/>
		<line fill="none" stroke="#B35047" x1="0" y1="224" x2="512" y2="224"/>
		<line fill="none" stroke="#B35047" x1="0" y1="256" x2="512" y2="256"/>
		<line fill="none" stroke="#B35047" x1="0" y1="288" x2="512" y2="288"/>
		<line fill="none" stroke="#B35047" x1="0" y1="320" x2="512" y2="320"/>
		<line fill="none" stroke="#B35047" x1="0" y1="352" x2="512" y2="352"/>
		<line fill="none" stroke="#B35047" x1="0" y1="384" x2="512" y2="384"/>
		<line fill="none" stroke="#B35047" x1="0" y1="416" x2="512" y2="416"/>
		<line fill="none" stroke="#B35047" x1="0" y1="448" x2="512" y2="448"/>
		<line fill="none" stroke="#B35047" x1="0" y1="480" x2="512" y2="480"/>
		<rect fill="none" stroke="#B35047" width="512" height="512"/>
	</g>
</g>
<path fill="#1D1D1B" d="M435.802,0H76.198C34.17,0,0.016,34.154,0.016,76.167v359.666c0,42.028,34.154,76.151,76.183,76.151h359.604
	c42.028,0,76.183-34.123,76.183-76.151V183.254v-36.373V76.167C511.984,34.154,477.83,0,435.802,0z M479.549,435.833
	c0,24.092-19.624,43.716-43.747,43.716H76.198c-24.155,0-43.747-19.624-43.747-43.716V76.167c0-24.108,19.592-43.716,43.747-43.716
	H421.24l-77.776,108.556l-27.718,38.686l-29.467-29.483c-9.218-9.265-24.217-9.265-33.436,0l-4.656,4.656
	c-1.156-1.891-1.938-3.953-3.219-5.766c-2.156-3.015-4.968-5.343-7.406-8.093c-20.249-22.889-49.091-36.841-80.058-36.841
	c-22.405,0-43.966,6.937-62.277,20.03c-48.153,34.42-59.34,101.588-24.967,149.741c14.155,19.749,34.967,33.498,57.872,40.122
	c0.781,0.25,1.562,0.5,2.375,0.719c8.531,2.281,17.312,3.438,26.154,3.594l96.182,96.182c9.219,9.25,24.218,9.25,33.436,0
	L401.71,299.091c7.343-7.312,8.624-18.124,4.344-26.936l2.687-2.25l2.25-1.875l68.559-57.559V435.833z M479.549,174.255
	L272.03,349.338c-4.656,3.781-8.843-0.094-8.843-0.094l-76.339-61.434c-9.281,3.562-19.155,5.5-29.217,5.5
	c-23.967,0-46.622-10.438-62.152-28.593c-14.218-16.624-21.124-37.763-19.405-59.574c1.688-21.795,11.75-41.591,28.374-55.793
	c14.78-12.671,33.686-19.624,53.122-19.624c23.999,0,46.622,10.405,62.215,28.576c21.03,24.608,24.623,58.137,12.437,85.979
	c16.374,21.452,29.03,38.029,29.655,38.779c1.875,2.188,6.562,5.375,11.937-0.625L453.238,36.107
	c15.468,6.75,26.311,22.155,26.311,40.06V174.255z"/>
</svg>
