<?xml version="1.0" encoding="utf-8"?>
<!-- Generator: Adobe Illustrator 16.0.0, SVG Export Plug-In . SVG Version: 6.00 Build 0)  -->
<!DOCTYPE svg PUBLIC "-//W3C//DTD SVG 1.1//EN" "http://www.w3.org/Graphics/SVG/1.1/DTD/svg11.dtd">
<svg version="1.1" id="Layer_1" xmlns="http://www.w3.org/2000/svg" xmlns:xlink="http://www.w3.org/1999/xlink" x="0px" y="0px"
	 width="512px" height="512px" viewBox="0 0 512 512" enable-background="new 0 0 512 512" xml:space="preserve">
<g id="Layer_1_1_">
	<g id="Grid" display="none">
		<g display="inline">
			<line fill="none" stroke="#B35047" x1="32" y1="0" x2="32" y2="512"/>
			<line fill="none" stroke="#B35047" x1="64" y1="0" x2="64" y2="512"/>
			<line fill="none" stroke="#B35047" x1="96" y1="0" x2="96" y2="512"/>
			<line fill="none" stroke="#B35047" x1="128" y1="0" x2="128" y2="512"/>
			<line fill="none" stroke="#B35047" x1="160" y1="0" x2="160" y2="512"/>
			<line fill="none" stroke="#B35047" x1="192" y1="0" x2="192" y2="512"/>
			<line fill="none" stroke="#B35047" x1="224" y1="0" x2="224" y2="512"/>
			<line fill="none" stroke="#B35047" x1="256" y1="0" x2="256" y2="512"/>
			<line fill="none" stroke="#B35047" x1="288" y1="0" x2="288" y2="512"/>
			<line fill="none" stroke="#B35047" x1="320" y1="0" x2="320" y2="512"/>
			<line fill="none" stroke="#B35047" x1="352" y1="0" x2="352" y2="512"/>
			<line fill="none" stroke="#B35047" x1="384" y1="0" x2="384" y2="512"/>
			<line fill="none" stroke="#B35047" x1="416" y1="0" x2="416" y2="512"/>
			<line fill="none" stroke="#B35047" x1="448" y1="0" x2="448" y2="512"/>
			<line fill="none" stroke="#B35047" x1="480" y1="0" x2="480" y2="512"/>
			<line fill="none" stroke="#B35047" x1="0" y1="32" x2="512" y2="32"/>
			<line fill="none" stroke="#B35047" x1="0" y1="64" x2="512" y2="64"/>
			<line fill="none" stroke="#B35047" x1="0" y1="96" x2="512" y2="96"/>
			<line fill="none" stroke="#B35047" x1="0" y1="128" x2="512" y2="128"/>
			<line fill="none" stroke="#B35047" x1="0" y1="160" x2="512" y2="160"/>
			<line fill="none" stroke="#B35047" x1="0" y1="192" x2="512" y2="192"/>
			<line fill="none" stroke="#B35047" x1="0" y1="224" x2="512" y2="224"/>
			<line fill="none" stroke="#B35047" x1="0" y1="256" x2="512" y2="256"/>
			<line fill="none" stroke="#B35047" x1="0" y1="288" x2="512" y2="288"/>
			<line fill="none" stroke="#B35047" x1="0" y1="320" x2="512" y2="320"/>
			<line fill="none" stroke="#B35047" x1="0" y1="352" x2="512" y2="352"/>
			<line fill="none" stroke="#B35047" x1="0" y1="384" x2="512" y2="384"/>
			<line fill="none" stroke="#B35047" x1="0" y1="416" x2="512" y2="416"/>
			<line fill="none" stroke="#B35047" x1="0" y1="448" x2="512" y2="448"/>
			<line fill="none" stroke="#B35047" x1="0" y1="480" x2="512" y2="480"/>
			<rect fill="none" stroke="#B35047" width="512" height="512"/>
		</g>
	</g>
</g>
<g>
	<path fill="#1D1D1B" d="M185.375,182.375c-7.75-59.25-45.219-104.906-87.062-106.156c-0.594-0.031-1.188-0.031-1.781-0.031
		c-16.094,0-30.344,6.562-41.219,19c-16.156,18.375-23,47.156-18.812,78.969c7.188,54.906,46.562,97.344,91.5,98.688
		c0.75,0.031,1.438,0.031,2.156,0.031c16.375,0,30.156-5.875,39.906-16.969C184.062,239.938,189.531,213.844,185.375,182.375z"/>
	<path fill="#1D1D1B" d="M174.781,431.188c-4.844-3.281-9.875-6.656-15.031-10.25c-13.219-4.156-27.219-6.344-41.656-6.5h-1.656
		c-49.5,0-94.25,25.094-111.438,58.438c9.688,23,32.469,39.125,59,39.125h169.25c0.156-2.281,0.25-4.594,0.25-6.969
		c0-5.562-0.688-11.219-2-16.719C225.719,465.656,204.375,451.188,174.781,431.188z"/>
	<path fill="#1D1D1B" d="M0,400.469c26.812-13.969,59.062-22.5,95.375-22.5c4.406,0,8.688-0.062,12.875-0.094
		c-8-9.656-14.375-21.312-14.375-37.438c0-8.125,1.562-16.562,4.656-25.156c-1.438,0.031-2.844,0.062-4.281,0.062
		C56.531,315.344,24.062,303.156,0,282V400.469z"/>
	<path fill="#1D1D1B" d="M440,248v8h-8h-40h-8v-8v-72h-72h-8v-8v-40v-8h8h72V48v-8h8h40h8v8v72h72V64c0-35.344-28.656-64-64-64H64
		C28.656,0,0,28.656,0,64v16.844C31.5,51.25,76.5,32,124.656,32h173.406h18.688l-12.875,13.531l-38.75,40.656l-2.375,2.5h-3.438h-22
		C258.719,110,271,142.094,271,178.75c0,36.969-18.781,71.188-54.312,98.969c-29.156,22.781-31.75,30.188-31.75,45.594
		c0,11.344,32,35.156,44.031,44.125l3.844,2.844c55.344,41.531,70.5,68.906,70.5,127.344c0,4.781-0.375,9.594-1.062,14.375H448
		c35.344,0,64-28.656,64-64V176h-72V248z"/>
</g>
</svg>
