<?xml version="1.0" encoding="utf-8"?>
<!-- Generator: Adobe Illustrator 16.0.0, SVG Export Plug-In . SVG Version: 6.00 Build 0)  -->
<!DOCTYPE svg PUBLIC "-//W3C//DTD SVG 1.1//EN" "http://www.w3.org/Graphics/SVG/1.1/DTD/svg11.dtd">
<svg version="1.1" id="Layer_1" xmlns="http://www.w3.org/2000/svg" xmlns:xlink="http://www.w3.org/1999/xlink" x="0px" y="0px"
	 width="512px" height="512px" viewBox="0 0 512 512" enable-background="new 0 0 512 512" xml:space="preserve">
<g id="Layer_1_1_">
	<g id="Grid" display="none">
		<g display="inline">
			<line fill="none" stroke="#B35047" x1="32" y1="0" x2="32" y2="512"/>
			<line fill="none" stroke="#B35047" x1="64" y1="0" x2="64" y2="512"/>
			<line fill="none" stroke="#B35047" x1="96" y1="0" x2="96" y2="512"/>
			<line fill="none" stroke="#B35047" x1="128" y1="0" x2="128" y2="512"/>
			<line fill="none" stroke="#B35047" x1="160" y1="0" x2="160" y2="512"/>
			<line fill="none" stroke="#B35047" x1="192" y1="0" x2="192" y2="512"/>
			<line fill="none" stroke="#B35047" x1="224" y1="0" x2="224" y2="512"/>
			<line fill="none" stroke="#B35047" x1="256" y1="0" x2="256" y2="512"/>
			<line fill="none" stroke="#B35047" x1="288" y1="0" x2="288" y2="512"/>
			<line fill="none" stroke="#B35047" x1="320" y1="0" x2="320" y2="512"/>
			<line fill="none" stroke="#B35047" x1="352" y1="0" x2="352" y2="512"/>
			<line fill="none" stroke="#B35047" x1="384" y1="0" x2="384" y2="512"/>
			<line fill="none" stroke="#B35047" x1="416" y1="0" x2="416" y2="512"/>
			<line fill="none" stroke="#B35047" x1="448" y1="0" x2="448" y2="512"/>
			<line fill="none" stroke="#B35047" x1="480" y1="0" x2="480" y2="512"/>
			<line fill="none" stroke="#B35047" x1="0" y1="32" x2="512" y2="32"/>
			<line fill="none" stroke="#B35047" x1="0" y1="64" x2="512" y2="64"/>
			<line fill="none" stroke="#B35047" x1="0" y1="96" x2="512" y2="96"/>
			<line fill="none" stroke="#B35047" x1="0" y1="128" x2="512" y2="128"/>
			<line fill="none" stroke="#B35047" x1="0" y1="160" x2="512" y2="160"/>
			<line fill="none" stroke="#B35047" x1="0" y1="192" x2="512" y2="192"/>
			<line fill="none" stroke="#B35047" x1="0" y1="224" x2="512" y2="224"/>
			<line fill="none" stroke="#B35047" x1="0" y1="256" x2="512" y2="256"/>
			<line fill="none" stroke="#B35047" x1="0" y1="288" x2="512" y2="288"/>
			<line fill="none" stroke="#B35047" x1="0" y1="320" x2="512" y2="320"/>
			<line fill="none" stroke="#B35047" x1="0" y1="352" x2="512" y2="352"/>
			<line fill="none" stroke="#B35047" x1="0" y1="384" x2="512" y2="384"/>
			<line fill="none" stroke="#B35047" x1="0" y1="416" x2="512" y2="416"/>
			<line fill="none" stroke="#B35047" x1="0" y1="448" x2="512" y2="448"/>
			<line fill="none" stroke="#B35047" x1="0" y1="480" x2="512" y2="480"/>
			<rect fill="none" stroke="#B35047" width="512" height="512"/>
		</g>
	</g>
</g>
<g>
	<path fill="#000100" d="M314.9,247.513c0-31.988-25.926-57.863-57.9-57.863c-31.975,0-57.925,25.875-57.925,57.863
		c0,31.987,25.95,57.938,57.925,57.938C288.975,305.45,314.9,279.5,314.9,247.513z"/>
	<path fill="#000100" d="M385.675,246.087c0,71.063-57.625,128.738-128.675,128.738c-71.075,0-128.7-57.675-128.7-128.738
		c0-14.85,2.538-29.137,7.2-42.4H1V410.7C1,466.65,46.337,512,102.275,512h309.424C467.625,512,513,466.65,513,410.7V203.688H378.5
		C383.125,216.95,385.675,231.237,385.675,246.087z"/>
	<path fill="#000100" d="M411.699,0H102.275C46.337,0,1,45.325,1,101.3v57.125h161.825c23.5-25.225,56.988-41.075,94.175-41.075
		c37.175,0,70.65,15.85,94.175,41.075H513V101.3C513,45.325,467.625,0,411.699,0z M451.475,116.25
		c0,6.45-5.175,11.675-11.625,11.675H390c-6.475,0-11.65-5.225-11.65-11.675V66.413c0-6.425,5.176-11.65,11.65-11.65h49.85
		c6.45,0,11.625,5.225,11.625,11.65V116.25z"/>
</g>
</svg>
