<?xml version="1.0" encoding="utf-8"?>
<!-- Generator: Adobe Illustrator 16.0.0, SVG Export Plug-In . SVG Version: 6.00 Build 0)  -->
<!DOCTYPE svg PUBLIC "-//W3C//DTD SVG 1.1//EN" "http://www.w3.org/Graphics/SVG/1.1/DTD/svg11.dtd">
<svg version="1.1" id="Layer_1" xmlns="http://www.w3.org/2000/svg" xmlns:xlink="http://www.w3.org/1999/xlink" x="0px" y="0px"
	 width="512px" height="512px" viewBox="0 0 512 512" enable-background="new 0 0 512 512" xml:space="preserve">
<path fill="#1D1D1B" d="M509.85,191.738c-0.688-1.12-11.771-20.49-34.07-40.359c-22.172-19.807-56.488-23.422-101.77-23.422
	c-45.25,0-79.225,3.709-100.962,23.578c-6.696,6.135-12.363,12.238-17.003,17.72c-4.796-5.543-10.65-11.678-17.564-17.875
	c-22.173-19.807-56.553-24.422-101.771-24.422c-45.249,0-79.255,4.709-100.961,24.578C13.888,171.498,3.237,190.93,2.615,192.05
	l-2.306,8.97v292.233l35.003,8.906l0.062,0.062c0.498-0.937,9.9-17.16,27.152-32.326c17.439-15.291,41.73-21.336,74.183-21.336
	c33.508,0,58.979,7.043,76.92,22.955c8.906,7.91,15.695,15.914,20.18,21.86c2.242,2.929,3.862,5.357,4.92,6.978
	c0.438,0.719,0.778,1.217,1.028,1.589c3.083,5.979,9.311,10.06,16.536,10.06c7.349,0,13.703-4.233,16.754-10.398
	c1.806-3.114,11.021-17.813,26.845-31.703c17.377-15.291,41.666-21.336,74.117-21.336c33.508,0,58.979,7.043,76.92,22.954
	c8.906,7.91,15.695,15.914,20.18,21.86c2.242,2.929,3.924,5.356,4.951,6.979c0.529,0.812,0.902,1.433,1.152,1.808
	c0.094,0.187,0.186,0.312,0.186,0.373l0.062-0.03l34.848-9.248V201.02L509.85,191.738z M237.608,442.865
	c-22.172-19.559-56.179-27.676-100.897-27.676h-0.062c-43.91,0-77.229,7.494-98.968,26.806V206.25
	c3.799-5.792,12.208-17.471,24.851-28.588c17.439-15.26,41.73-17.305,74.183-17.335c33.508,0,58.979,3.072,76.92,18.954
	c8.906,7.91,15.695,15.945,20.18,21.862c1.56,2.055,2.804,3.861,3.799,5.356L237.608,442.865L237.608,442.865z M474.906,442.865
	c-22.141-19.559-56.178-27.676-100.896-27.676c-43.941-0.028-77.232,7.494-99.031,26.806V206.25
	c3.799-5.792,12.207-17.439,24.914-28.588c17.377-15.26,41.666-17.305,74.117-17.335c33.508,0,58.979,3.072,76.92,18.954
	c8.906,7.91,15.695,15.945,20.18,21.862c1.557,2.055,2.863,3.861,3.799,5.325L474.906,442.865L474.906,442.865z M60.039,225.188
	l15.319,20.118l1.993,2.803c0.965-0.623,21.176-14.886,61.975-14.917c21.768,0,37.931,4.08,48.55,8.003
	c5.325,1.932,9.187,3.862,11.646,5.232c1.246,0.685,2.087,1.215,2.616,1.557c0.249,0.125,0.405,0.249,0.467,0.28l0.031,0.031h0.031
	l4.606-6.509l12.208-17.785c-1.682-1.277-29.271-19.585-80.156-19.555C88.409,204.385,61.783,223.787,60.039,225.188
	 M77.354,310.268c0.965-0.623,21.176-14.917,61.975-14.948c21.768,0,37.962,4.111,48.58,8.035c5.264,1.932,9.154,3.861,11.614,5.231
	c1.246,0.685,2.118,1.184,2.616,1.525c0.249,0.156,0.405,0.28,0.467,0.344h0.062l4.481-6.385l12.304-17.909l0,0
	c-1.685-1.277-29.242-19.584-80.127-19.555c-50.917-0.03-77.542,19.309-79.287,20.741l17.438,22.858l-2.118-2.772L77.354,310.268z
	 M60.039,349.504l15.882,20.865l-0.562-0.746l1.993,2.803l0.125-0.062c1.744-1.184,21.924-14.822,61.85-14.854
	c21.768,0,37.962,4.08,48.55,8.004c5.294,1.932,9.187,3.861,11.646,5.231c1.246,0.685,2.118,1.183,2.616,1.524
	c0.249,0.155,0.405,0.278,0.467,0.312c0,0,0.031,0,0.031,0.03h0.031l4.671-6.604l12.145-17.691
	c-1.713-1.309-29.271-19.584-80.156-19.555C88.377,328.734,61.814,348.073,60.039,349.504 M441.586,247.295l4.731-6.728
	l-4.856,6.664l0,0C441.523,247.295,441.586,247.295,441.586,247.295 M314.279,244.306l1.992,2.803l0,0
	c0.967-0.623,21.179-14.886,61.941-14.917c21.768,0,37.961,4.08,48.551,8.003c5.293,1.932,9.186,3.862,11.646,5.232
	c1.246,0.685,2.117,1.215,2.615,1.557c0.188,0.094,0.373,0.188,0.438,0.249l16.907-23.23c-1.713-1.277-29.239-20.585-80.155-20.555
	c-50.916-0.062-77.514,19.34-79.287,20.74l17.407,22.858L314.279,244.306z M316.271,309.268
	c0.967-0.623,21.146-14.917,61.941-14.948c21.768,0,37.961,4.111,48.551,8.035c5.293,1.932,9.217,3.861,11.646,5.231
	c1.246,0.685,2.117,1.184,2.615,1.525c0.219,0.156,0.373,0.219,0.438,0.28c0.062,0.062,0.125,0.062,0.125,0.062l4.547-6.479
	l12.235-16.815l0,0c-1.713-1.277-29.239-20.584-80.155-20.555c-50.916-0.031-77.514,19.309-79.287,20.741l17.407,22.858
	l-2.057-2.741L316.271,309.268z M298.926,348.504l15.354,20.182l1.992,2.74l0.062-0.062c1.742-1.184,21.983-14.822,61.879-14.854
	c21.768,0,37.961,4.08,48.551,8.004c5.293,1.932,9.186,3.861,11.646,5.231c1.246,0.685,2.117,1.183,2.615,1.524
	c0.25,0.155,0.438,0.278,0.498,0.312c0,0,0,0,0,0.03h0.062l4.606-6.604l12.176-16.691c-1.713-1.309-29.239-20.584-80.155-20.555
	C327.297,327.734,300.699,347.073,298.926,348.504"/>
</svg>
