<?xml version="1.0" encoding="utf-8"?>
<!-- Generator: Adobe Illustrator 17.0.0, SVG Export Plug-In . SVG Version: 6.00 Build 0)  -->
<!DOCTYPE svg PUBLIC "-//W3C//DTD SVG 1.1//EN" "http://www.w3.org/Graphics/SVG/1.1/DTD/svg11.dtd">
<svg version="1.1" id="Layer_1" xmlns="http://www.w3.org/2000/svg" xmlns:xlink="http://www.w3.org/1999/xlink" x="0px" y="0px"
	 width="512px" height="512px" viewBox="0 0 512 512" enable-background="new 0 0 512 512" xml:space="preserve">
<g id="Calendar">
	<rect x="384" fill="#12110B" width="64" height="96"/>
	<rect x="64" fill="#12110B" width="64" height="96"/>
	<path fill="#12110B" d="M480,64v64H352V64H160v64H32V64H0v448h512V64H480z M96,448H32v-64h64V448z M96,352H32v-64h64V352z M192,448
		h-64v-64h64V448z M192,352h-64v-64h64V352z M288,448h-64v-64h64V448z M288,352h-64v-64h64V352z M384,448h-64v-64h64V448z M480,448
		h-64v-64h64V448z M480,352h-64v-64h64V352z M480,224H32v-32h448V224z"/>
</g>
</svg>
