<?xml version="1.0" encoding="utf-8"?>
<!-- Generator: Adobe Illustrator 16.0.0, SVG Export Plug-In . SVG Version: 6.00 Build 0)  -->
<!DOCTYPE svg PUBLIC "-//W3C//DTD SVG 1.1//EN" "http://www.w3.org/Graphics/SVG/1.1/DTD/svg11.dtd">
<svg version="1.1" id="Layer_1" xmlns="http://www.w3.org/2000/svg" xmlns:xlink="http://www.w3.org/1999/xlink" x="0px" y="0px"
	 width="512px" height="512px" viewBox="0 0 512 512" enable-background="new 0 0 512 512" xml:space="preserve">
<g>
	<path fill="#1D1D1B" d="M257,0C115.609,0,1,114.625,1,256s114.608,256,256,256c141.375,0,256-114.625,256-256S398.375,0,257,0z
		 M257,448c-106.031,0-192-85.969-192-192c0-106.03,85.969-192,192-192c106.03,0,192,85.97,192,192C449,362.031,363.031,448,257,448
		z"/>
	<polygon fill="#1D1D1B" points="289,224 289,96 225,96 225,288 417,288 417,224 	"/>
</g>
</svg>
