<?xml version="1.0" encoding="utf-8"?>
<!-- Generator: Adobe Illustrator 16.0.0, SVG Export Plug-In . SVG Version: 6.00 Build 0)  -->
<!DOCTYPE svg PUBLIC "-//W3C//DTD SVG 1.1//EN" "http://www.w3.org/Graphics/SVG/1.1/DTD/svg11.dtd">
<svg version="1.1" id="Layer_1" xmlns="http://www.w3.org/2000/svg" xmlns:xlink="http://www.w3.org/1999/xlink" x="0px" y="0px"
	 width="512px" height="512px" viewBox="0 0 512 512" enable-background="new 0 0 512 512" xml:space="preserve">
<path fill="#000100" d="M78.448,416.21v22.514c23.661,15.797,66.086,26.158,123.408,26.158c57.277,0,99.669-10.361,123.378-26.158
	v-20.598c21.604-12.688,38.404-29.99,47.386-52.224c3.327,0.439,6.907,0.754,10.802,0.785c59.538,0,129.562-78.851,129.562-145.232
	c0-59.412-56.334-88.646-110.909-94.017c-1.068-26-2.826-42.219-2.826-42.219c0-20.521-88.931-37.117-198.632-37.117
	C90.93,48.102,2.016,64.698,2.016,85.219c0,0-8.683,173.792,24.744,276.162C34.062,383.865,52.997,402.361,78.448,416.21z
	 M402.576,173.615c32.374,3.329,61.986,16.188,61.986,52.378c0,43.068-41.953,102.605-80.577,103.266
	C397.74,275.436,401.948,218.77,402.576,173.615z M201.856,71.732c82.398,0,149.097,9.562,149.097,21.337
	c0,11.744-66.697,21.243-149.097,21.243c-82.382,0-149.142-9.499-149.142-21.243C52.714,81.294,119.475,71.732,201.856,71.732z"/>
</svg>
