<?xml version="1.0" encoding="utf-8"?>
<!-- Generator: Adobe Illustrator 17.0.0, SVG Export Plug-In . SVG Version: 6.00 Build 0)  -->
<!DOCTYPE svg PUBLIC "-//W3C//DTD SVG 1.1//EN" "http://www.w3.org/Graphics/SVG/1.1/DTD/svg11.dtd">
<svg version="1.1" id="Layer_1" xmlns="http://www.w3.org/2000/svg" xmlns:xlink="http://www.w3.org/1999/xlink" x="0px" y="0px"
	 width="512px" height="512px" viewBox="0 0 512 512" enable-background="new 0 0 512 512" xml:space="preserve">
<path fill="#1D1D1B" d="M36.501,174.158c-4.188-31.813,2.657-60.594,18.812-78.969c10.875-12.438,25.125-19,41.22-19
	c0.592,0,1.186,0,1.78,0.031c41.842,1.25,79.312,46.905,87.062,106.155c4.156,31.469-1.313,57.563-15.313,73.532
	c-9.75,11.094-23.53,16.969-39.905,16.969c-0.718,0-1.406,0-2.156-0.03C83.063,271.502,43.689,229.064,36.501,174.158z
	 M174.781,431.188c-4.844-3.281-9.875-6.656-15.03-10.25c-13.22-4.156-27.22-6.344-41.656-6.5h-1.656
	c-49.5,0-94.25,25.094-111.438,58.438c9.688,23,32.469,39.125,59,39.125h169.25c0.155-2.281,0.25-4.595,0.25-6.97
	c0-5.562-0.688-11.219-2-16.719C225.719,465.656,204.375,451.188,174.781,431.188z M108.25,377.874
	c-8-9.655-14.375-21.312-14.375-37.438c0-8.125,1.562-16.562,4.655-25.156c-1.438,0.031-2.844,0.062-4.28,0.062
	C56.531,315.344,24.062,303.156,0,282v118.469c26.812-13.97,59.062-22.5,95.375-22.5C99.78,377.969,104.063,377.907,108.25,377.874z
	 M440,120h72V64c0-35.344-28.656-64-64-64H64C28.656,0,0,28.656,0,64v16.845C31.5,51.25,76.5,32,124.656,32h173.406h18.688
	l-12.875,13.531l-38.75,40.656l-2.375,2.5h-3.438h-22C258.719,110,271,142.094,271,178.75c0,36.97-18.781,71.188-54.312,98.97
	c-29.155,22.78-31.75,30.188-31.75,45.594c0,11.344,32,35.156,44.031,44.125l3.844,2.844c55.344,41.531,70.5,68.906,70.5,127.345
	c0,4.78-0.375,9.594-1.062,14.375H448c35.344,0,64-28.656,64-64V176h-72v72v8h-8h-40h-8v-8v-72h-72h-8v-8v-40v-8h8h72V48v-8h8h40h8
	v8V120z"/>
</svg>
