<?xml version="1.0" encoding="utf-8"?>
<!-- Generator: Adobe Illustrator 16.0.0, SVG Export Plug-In . SVG Version: 6.00 Build 0)  -->
<!DOCTYPE svg PUBLIC "-//W3C//DTD SVG 1.1//EN" "http://www.w3.org/Graphics/SVG/1.1/DTD/svg11.dtd">
<svg version="1.1" id="Layer_1" xmlns="http://www.w3.org/2000/svg" xmlns:xlink="http://www.w3.org/1999/xlink" x="0px" y="0px"
	 width="512px" height="512px" viewBox="0 0 512 512" enable-background="new 0 0 512 512" xml:space="preserve">
<g>
	<path fill="#000100" d="M269.76,79.95l-8.805,8.082l-95.834,88.114c0,0,35.299,20.519,58.758,3.333
		c23.428-17.28,59.214-45.802,59.214-45.802s10.126,15.188,24.089,21.115c5.943,2.484,15.031,3.602,23.585,4.011
		c11.761,0.723,22.453,0.047,22.453,0.047l74.401,78.962L513,237.829V79.636L269.76,79.95z"/>
	<path fill="#000100" d="M225.216,318.852c-10.236-10.314-26.777-10.314-36.966,0l-14.592,14.653l-5.283,5.314
		c-10.173,10.22-10.173,26.855,0,37.17c10.22,10.221,26.792,10.221,36.998,0l1.682-1.762l18.161-18.207
		C235.451,345.707,235.451,329.103,225.216,318.852z"/>
	<path fill="#000100" d="M230.357,377.846c-4.749,0-9.15,1.446-12.861,3.962c-0.551,0.377-1.085,0.881-1.604,1.32
		c-1.902,1.446-3.521,3.177-4.857,5.188c-2.423,3.679-3.868,8.146-3.868,12.924c0,12.831,10.394,23.271,23.191,23.271
		c7.279,0,13.742-3.459,17.987-8.773c3.176-3.993,5.22-8.993,5.22-14.497C253.564,388.317,243.156,377.846,230.357,377.846z"/>
	<path fill="#000100" d="M345.264,173.504c-14.277,0.11-36.762-0.612-49.025-5.833c-18.867-7.956-18.208-12.186-18.208-12.186
		s-13.615,11.997-45.221,35.252c-41.524,30.598-91.997-10.157-91.997-10.157L247.873,79.148L1,78.865v161.81l70.787-0.551
		c6.478-8.49,16.62-14.01,28.098-14.01c19.45,0,35.22,15.803,35.314,35.284l3.442-3.381c14.23-14.324,37.956-13.664,52.972,1.493
		c10.599,10.63,14.025,25.565,10.269,38.46c11.887-2.014,24.513,1.541,33.68,10.786c15.079,15.126,15.079,39.717,0,54.874
		l-3.616,3.616c17.909,0.85,32.187,15.691,32.187,33.993c0,8.429-3.113,16.164-8.208,22.14l1.069,1.068
		c11.604,11.729,30.504,11.729,42.106,0c11.228-11.289,11.541-29.214,1.163-40.975l0.221-0.283
		c11.667,10.44,29.528,10.188,40.786-1.069c11.384-11.51,11.572-30,0.535-41.729l0.094-0.063
		c11.729,10.976,30.063,10.882,41.479-0.629c11.667-11.729,11.667-30.724,0.031-42.357c11.636,11.635,30.504,11.635,42.075,0
		c11.635-11.698,11.635-30.678,0-42.392L345.264,173.504z"/>
	<path fill="#000100" d="M180.467,307.877c10.188-10.188,10.188-26.855,0-37.14c-10.188-10.284-26.777-10.283-36.966,0
		l-10.786,10.818l-9.041,9.088c-10.236,10.283-10.236,27.013,0,37.265c10.205,10.251,26.714,10.251,36.935,0l4.765-4.843
		L180.467,307.877z"/>
	<path fill="#000100" d="M118.878,277.813c2.027-2.327,3.568-5.063,4.606-8.066c0.803-2.422,1.368-5,1.368-7.72
		c0-13.381-10.771-24.215-24.024-24.215c-3.899,0-7.517,1.021-10.756,2.642c-7.861,4.01-13.317,12.123-13.317,21.573
		c0,13.364,10.739,24.214,24.073,24.214c6.021,0,11.445-2.296,15.645-6.007L118.878,277.813z"/>
</g>
</svg>
