<?xml version="1.0" encoding="utf-8"?>
<!-- Generator: Adobe Illustrator 21.0.0, SVG Export Plug-In . SVG Version: 6.00 Build 0)  -->
<svg version="1.1" id="Layer_1" xmlns="http://www.w3.org/2000/svg" xmlns:xlink="http://www.w3.org/1999/xlink" x="0px" y="0px"
	 viewBox="0 0 503.1 503.1" style="enable-background:new 0 0 503.1 503.1;" xml:space="preserve">
<style type="text/css">
	.st0{fill:#FFFFFF;}
	.st1{fill:#EF4236;}
</style>
<path class="st0" d="M466.5,271.8c0,12.8-1.2,19.8-5.4,25.5c-4.3,5.7-10.7,8.8-23.4,8.8c-23.1,0-29.7-12.4-29.7-39.8
	c0-30,6.5-39.5,27.1-39.5c8.8,0,11.8,3.4,13.6,3.4c0.6,0,0.9-0.3,0.9-1.4v-30c0-1.1,0.6-2,1.7-2h13.3c1.2,0,1.9,0.9,1.9,2V271.8z"/>
<path class="st0" d="M149.4,226.9c-10.4,0-18.3,1.6-20.7,2.8c-2.8,1.2-3.2,2.8-3.2,5.3v6.7c0,2.5,0.5,3.1,2,3.1
	c2.9,0,6.2-2.8,18.3-2.8c12.4,0,15.5,1.9,15.5,13c0,1.4-0.5,2-2.2,2h-12.4c-20.4,0-25.1,7.4-25.1,24c0,17.6,4.6,25.2,23.1,25.2
	c6,0,13.8-0.8,19-8c0.2-0.3,0.5-0.5,0.6-0.5c0.1,0,0.1,0.1,0.5,0.5l2,3.4c1.9,3.1,2.5,3.7,5.3,3.7h3.9c1.4,0,2.2-0.9,2.2-2v-42.1
	C178.1,236.4,173.4,226.9,149.4,226.9z"/>
<g>
	<path class="st1" d="M502,228.6C489.4,90.3,367-11.6,228.6,1.1C90.3,13.7-11.6,136.1,1.1,274.5C13.7,412.8,136.1,514.7,274.5,502
		C412.8,489.4,514.7,367,502,228.6z"/>
</g>
<path class="st0" d="M304.8,229.1c-2.5-1.2-9.1-2.2-17.3-2.2c-24.8,0-29.7,12.1-29.7,39.3c0,27.4,5,39.9,31.6,39.9
	c8.1,0,15.2-2,15.9-2.5c2-1.1,2.5-1.9,2.5-4.5v-8.4c0-1.2-0.6-1.9-1.9-1.9c-2,0-9.4,1.5-14.5,1.5c-12.2,0-15.8-3.6-15.8-24.3
	c0-20.6,3.5-23.7,15.8-23.7c6.3,0,12.8,2.2,14.7,2.2c1.1,0,1.7-0.8,1.7-1.7v-9.9C307.8,230.8,306.1,229.7,304.8,229.1z"/>
<path class="st0" d="M76.3,226.9c-11.8,0-15,4-17.2,4c-0.6,0-0.8-0.5-0.8-1.1v-31c0-1.1-0.8-2-2.2-2H43.6c-1.4,0-2.2,0.9-2.2,2
	v104.3c0,1.1,0.8,2,2.2,2h12.7c1.4,0,2.2-0.9,2.2-2v-46.7c0-12.2,2.2-13.9,12.4-13.9c10.1,0,11.9,1.7,11.9,13.9v46.7
	c0,1.1,0.5,2,2.2,2h12.8c1.5,0,2.2-0.9,2.2-2v-48.6C99.9,237.3,95.6,226.9,76.3,226.9z"/>
<path class="st0" d="M239.5,289.8c-2,0-5.1,0.8-9.8,0.8c-8.2,0-9.9-3.6-9.9-9v-36.1c0-0.9,0.6-1.4,1.5-1.4h16.4
	c0.9,0,1.5-0.5,1.5-1.4v-12.2c0-0.9-0.6-1.4-1.5-1.4h-15.5c-2,0-2.9-0.6-3.1-2.5l-1.4-12.1c-0.3-2.3-1.1-3.2-3.4-3.2H205
	c-1.4,0-2.2,0.9-2.2,2v70c0,15,4.6,22.9,24.5,22.9c12.8,0,14.2-2.3,14.2-5.3v-9C241.5,290.5,240.6,289.8,239.5,289.8z"/>
<path class="st0" d="M149.4,226.9c-10.4,0-18.3,1.6-20.7,2.8c-2.8,1.2-3.2,2.8-3.2,5.3v6.7c0,2.5,0.5,3.1,2,3.1
	c2.9,0,6.2-2.8,18.3-2.8c12.4,0,15.5,1.9,15.5,13c0,1.4-0.5,2-2.2,2h-12.4c-20.4,0-25.1,7.4-25.1,24c0,17.6,4.6,25.2,23.1,25.2
	c6,0,13.8-0.8,19-8c0.2-0.3,0.5-0.5,0.6-0.5c0.1,0,0.1,0.1,0.5,0.5l2,3.4c1.9,3.1,2.5,3.7,5.3,3.7h3.9c1.4,0,2.2-0.9,2.2-2v-42.1
	C178.1,236.4,173.4,226.9,149.4,226.9z M161.4,277.2c0,9.3-4.8,14.7-14.2,14.7c-6,0-8.8-1.5-8.8-11c0-10.4,2.8-10.7,12.2-10.7h9.3
	c0.9,0,1.6,0.5,1.6,1.5V277.2z"/>
<path class="st0" d="M362.7,226.9c-11.8,0-15,4-17.2,4c-0.6,0-0.8-0.5-0.8-1.1v-31c0-1.1-0.8-2-2.2-2H330c-1.4,0-2.2,0.9-2.2,2
	v104.3c0,1.1,0.8,2,2.2,2h12.7c1.4,0,2.2-0.9,2.2-2v-46.7c0-12.2,2.2-13.9,12.4-13.9c10.1,0,11.9,1.7,11.9,13.9v46.7
	c0,1.1,0.5,2,2.2,2h12.8c1.5,0,2.2-0.9,2.2-2v-48.6C386.4,237.3,382,226.9,362.7,226.9z"/>
<path class="st0" d="M464.7,196.9h-13.3c-1.1,0-1.7,0.9-1.7,2v30c0,1.1-0.3,1.4-0.9,1.4c-1.9,0-4.8-3.4-13.6-3.4
	c-20.6,0-27.1,9.4-27.1,39.5c0,27.4,6.6,39.8,29.7,39.8c12.7,0,19-3.1,23.4-8.8c4.2-5.7,5.4-12.7,5.4-25.5v-72.9
	C466.5,197.8,465.9,196.9,464.7,196.9z M447.5,287c-2,2.9-5.9,3.6-9.6,3.6c-9.3,0-13.2-3.7-13.2-24.1c0-20.6,3.9-23.8,13.2-23.8
	c4,0,8.4,0.8,10.2,4.2c2,3.4,2,9.7,2,19.6C450.1,277.1,449.8,283.4,447.5,287z"/>
<path class="st0" d="M99.9,303.2c0,1.1-0.6,2-2.2,2H84.9c-1.7,0-2.2-0.9-2.2-2v-46.7c0-12.2-1.9-13.9-11.9-13.9
	c-10.2,0-12.4,1.7-12.4,13.9v46.7c0,1.1-0.8,2-2.2,2H43.6c-1.4,0-2.2-0.9-2.2-2V198.9c0-1.1,0.8-2,2.2-2h12.5c1.4,0,2.2,0.9,2.2,2
	v31c0,0.6,0.2,1.1,0.8,1.1c2.2,0,5.4-4,17.2-4c19.3,0,23.7,10.4,23.7,27.7V303.2z"/>
<path class="st0" d="M241.5,300.9c0,2.9-1.4,5.3-14.2,5.3c-19.8,0-24.5-7.9-24.5-22.9v-70c0-1.1,0.8-2,2.2-2h9.4
	c2.3,0,3.1,0.9,3.4,3.2l1.4,12.1c0.2,1.9,1.1,2.5,3.1,2.5h15.5c0.9,0,1.5,0.5,1.5,1.4v12.2c0,0.9-0.6,1.4-1.5,1.4h-16.4
	c-0.9,0-1.5,0.5-1.5,1.4v36.1c0,5.4,1.7,9,9.9,9c4.6,0,7.7-0.8,9.8-0.8c1.1,0,2,0.8,2,2.2V300.9z"/>
<path class="st0" d="M307.8,243c0,0.9-0.6,1.7-1.7,1.7c-1.9,0-8.4-2.2-14.7-2.2c-12.2,0-15.8,3.1-15.8,23.7
	c0,20.7,3.5,24.3,15.8,24.3c5.1,0,12.5-1.5,14.5-1.5c1.2,0,1.9,0.6,1.9,1.9v8.4c0,2.6-0.5,3.4-2.5,4.5c-0.8,0.5-7.9,2.5-15.9,2.5
	c-26.6,0-31.6-12.5-31.6-39.9c0-27.2,5-39.3,29.7-39.3c8.2,0,14.9,0.9,17.3,2.2c1.2,0.6,2.9,1.7,2.9,4V243z"/>
<path class="st0" d="M386.4,303.2c0,1.1-0.6,2-2.2,2h-12.8c-1.7,0-2.2-0.9-2.2-2v-46.7c0-12.2-1.9-13.9-11.9-13.9
	c-10.2,0-12.4,1.7-12.4,13.9v46.7c0,1.1-0.8,2-2.2,2H330c-1.4,0-2.2-0.9-2.2-2V198.9c0-1.1,0.8-2,2.2-2h12.5c1.4,0,2.2,0.9,2.2,2v31
	c0,0.6,0.2,1.1,0.8,1.1c2.2,0,5.4-4,17.2-4c19.3,0,23.7,10.4,23.7,27.7V303.2z"/>
</svg>
