<?xml version="1.0" encoding="utf-8"?>
<!-- Generator: Adobe Illustrator 17.0.0, SVG Export Plug-In . SVG Version: 6.00 Build 0)  -->
<!DOCTYPE svg PUBLIC "-//W3C//DTD SVG 1.1//EN" "http://www.w3.org/Graphics/SVG/1.1/DTD/svg11.dtd">
<svg version="1.1" id="Layer_1" xmlns="http://www.w3.org/2000/svg" xmlns:xlink="http://www.w3.org/1999/xlink" x="0px" y="0px"
	 width="512px" height="512px" viewBox="0 0 512 512" enable-background="new 0 0 512 512" xml:space="preserve">
<path fill="#12110B" d="M322.699,447.288c0,35.606-28.632,64.24-64.242,64.24c-35.609,0-64.24-28.634-64.24-64.24
	c0-35.611,28.632-64.19,64.24-64.19C294.069,383.098,322.699,411.677,322.699,447.288z M267.531,0.471
	c-97.045,0-164.776,53.072-174.53,151.507l107.505,6.977c2.779-34.193,25.828-62.145,69.121-62.145
	c28.635,0,50.241,18.2,50.241,48.876c0,32.148-37.654,55.171-89.337,104.73c-17.465,16.782-24.437,34.926-24.437,62.827v30.731
	h104.755V323.73c0-15.367,5.559-31.415,27.166-48.197c66.34-52.338,86.634-84.433,86.636-137.503
	C424.651,47.984,352.699,0.471,267.531,0.471z"/>
</svg>
