<?xml version="1.0" encoding="utf-8"?>
<!-- Generator: Adobe Illustrator 17.0.0, SVG Export Plug-In . SVG Version: 6.00 Build 0)  -->
<!DOCTYPE svg PUBLIC "-//W3C//DTD SVG 1.1//EN" "http://www.w3.org/Graphics/SVG/1.1/DTD/svg11.dtd">
<svg version="1.1" id="Layer_1" xmlns="http://www.w3.org/2000/svg" xmlns:xlink="http://www.w3.org/1999/xlink" x="0px" y="0px"
	 width="512px" height="512px" viewBox="0 0 512 512" enable-background="new 0 0 512 512" xml:space="preserve">
<path fill="#12110B" d="M256,0C114.609,0,0,114.625,0,256s114.608,256,256,256c141.375,0,256-114.625,256-256S397.375,0,256,0z
	 M313.156,370.312c0,0-45.719,68.562-91.438,68.562c-45.703,0-45.703-22.875-45.719-45.72
	c-0.017-22.844,45.719-160.031,45.719-160.031L176.016,256c0,0,45.703-68.562,91.422-68.562s45.719,22.844,45.719,45.688
	c0,22.875-45.719,160.031-45.719,160.031L313.156,370.312z M290.312,164.562c-25.25,0-45.75-20.438-45.75-45.688
	s20.5-45.75,45.75-45.75S336,93.625,336,118.875S315.562,164.562,290.312,164.562z"/>
</svg>
