<?xml version="1.0" encoding="utf-8"?>
<!-- Generator: Adobe Illustrator 17.0.0, SVG Export Plug-In . SVG Version: 6.00 Build 0)  -->
<!DOCTYPE svg PUBLIC "-//W3C//DTD SVG 1.1//EN" "http://www.w3.org/Graphics/SVG/1.1/DTD/svg11.dtd">
<svg version="1.1" id="Layer_1" xmlns="http://www.w3.org/2000/svg" xmlns:xlink="http://www.w3.org/1999/xlink" x="0px" y="0px"
	 width="512px" height="512px" viewBox="0 0 512 512" enable-background="new 0 0 512 512" xml:space="preserve">
<g id="Info">
	<path fill="#12110B" d="M368.492,64c0,35.345-28.625,64-64,64c-35.312,0-63.984-28.655-63.984-64c0-35.344,28.672-64,63.984-64
		C339.867,0,368.492,28.656,368.492,64z"/>
	<path fill="#12110B" d="M272.492,448c0,0,64-192,64-224s0-64-64-64c-63.984,0-127.984,96-127.984,96l64-32
		c0,0-64.031,192-64.016,224c0.015,32,0.016,64,64.016,64c63.984,0,127.984-96,127.984-96L272.492,448z"/>
</g>
</svg>
