<?xml version="1.0" encoding="utf-8"?>
<!-- Generator: Adobe Illustrator 17.0.0, SVG Export Plug-In . SVG Version: 6.00 Build 0)  -->
<!DOCTYPE svg PUBLIC "-//W3C//DTD SVG 1.1//EN" "http://www.w3.org/Graphics/SVG/1.1/DTD/svg11.dtd">
<svg version="1.1" id="Layer_1" xmlns="http://www.w3.org/2000/svg" xmlns:xlink="http://www.w3.org/1999/xlink" x="0px" y="0px"
	 width="512px" height="512px" viewBox="0 0 512 512" enable-background="new 0 0 512 512" xml:space="preserve">
<g>
	<g>
		<path d="M337.478,63.869H47.047C21.027,63.869,0,84.895,0,110.916v290.168c0,26.021,21.027,47.047,47.047,47.047h290.168
			c26.021,0,47.047-21.027,47.047-47.047V110.916C384.526,84.895,363.499,63.869,337.478,63.869z M192.131,393.462
			c-75.696,0-137.199-61.503-137.199-137.199c0-75.959,61.503-137.462,137.199-137.462S329.331,180.304,329.331,256
			C329.593,331.959,268.09,393.462,192.131,393.462z"/>
		<circle cx="192.131" cy="256" r="77.273"/>
	</g>
	<polygon points="497.544,116.173 420.008,163.22 420.008,349.043 497.544,396.09 512,396.09 512,116.173 	"/>
</g>
</svg>
