<?xml version="1.0" encoding="utf-8"?>
<!-- Generator: Adobe Illustrator 16.0.0, SVG Export Plug-In . SVG Version: 6.00 Build 0)  -->
<!DOCTYPE svg PUBLIC "-//W3C//DTD SVG 1.1//EN" "http://www.w3.org/Graphics/SVG/1.1/DTD/svg11.dtd">
<svg version="1.1" id="Layer_1" xmlns="http://www.w3.org/2000/svg" xmlns:xlink="http://www.w3.org/1999/xlink" x="0px" y="0px"
	 width="512px" height="512px" viewBox="0 0 512 512" enable-background="new 0 0 512 512" xml:space="preserve">
<g>
	<path fill="#1D1D1B" d="M155.973,423.238v-225.69h-75v225.69H155.973L155.973,423.238z M118.441,166.761
		c26.167,0,42.465-17.361,42.465-38.969c-0.468-22.199-16.298-39.029-41.965-39.029s-42.434,16.831-42.434,39.029
		c0,21.607,16.299,38.969,41.497,38.969H118.441L118.441,166.761z"/>
	<path fill="#1D1D1B" d="M197.471,423.238h75.032V297.153c0-6.682,0.469-13.427,2.466-18.235
		c5.401-13.487,17.735-27.478,38.438-27.478c27.164,0,38.032,20.732,38.032,51.084v120.714h75.001V293.845
		c0-69.318-37.001-101.573-86.367-101.573c-40.497,0-58.201,22.638-68.101,38.031h0.53v-32.755h-75.031
		C198.438,218.719,197.471,423.238,197.471,423.238L197.471,423.238z"/>
</g>
</svg>
