<?xml version="1.0" encoding="utf-8"?>
<!-- Generator: Adobe Illustrator 17.0.0, SVG Export Plug-In . SVG Version: 6.00 Build 0)  -->
<!DOCTYPE svg PUBLIC "-//W3C//DTD SVG 1.1//EN" "http://www.w3.org/Graphics/SVG/1.1/DTD/svg11.dtd">
<svg version="1.1" id="Layer_1" xmlns="http://www.w3.org/2000/svg" xmlns:xlink="http://www.w3.org/1999/xlink" x="0px" y="0px"
	 width="512px" height="512px" viewBox="0 0 512 512" enable-background="new 0 0 512 512" xml:space="preserve">
<path fill="#1D1D1B" d="M483.697,347.092l-68.329-68.329c-29.685-29.685-73.769-35.626-109.646-18.583l-53.895-53.896
	c17.043-35.878,11.131-79.932-18.583-109.646l-68.329-68.36c-37.701-37.702-98.894-37.702-136.625,0
	c-37.702,37.733-37.733,98.893,0,136.626l68.328,68.328c29.715,29.684,73.8,35.595,109.678,18.584l53.895,53.896
	c-17.042,35.878-11.13,79.932,18.584,109.646l68.328,68.359c37.703,37.671,98.893,37.671,136.596,0
	C521.43,445.983,521.43,384.824,483.697,347.092z M73.82,119.402c-12.577-12.609-12.577-32.985,0.031-45.531
	c12.578-12.641,32.953-12.641,45.562-0.032l68.298,68.329c4.245,4.214,6.509,9.496,7.893,14.843
	c-10.629-2.704-22.356-0.409-30.659,7.924c-8.362,8.333-10.627,19.999-7.924,30.688c-5.408-1.415-10.596-3.71-14.842-7.924
	L73.82,119.402z M438.133,438.122c-12.545,12.642-32.922,12.642-45.531,0l-68.297-68.297c-4.244-4.245-6.539-9.465-7.893-14.874
	c10.598,2.736,22.325,0.473,30.657-7.892c8.334-8.302,10.629-19.999,7.894-30.658c5.377,1.383,10.629,3.647,14.873,7.893
	l68.329,68.298C450.773,405.199,450.773,425.575,438.133,438.122z"/>
</svg>
