<?xml version="1.0" encoding="utf-8"?>
<!-- Generator: Adobe Illustrator 17.0.0, SVG Export Plug-In . SVG Version: 6.00 Build 0)  -->
<!DOCTYPE svg PUBLIC "-//W3C//DTD SVG 1.1//EN" "http://www.w3.org/Graphics/SVG/1.1/DTD/svg11.dtd">
<svg version="1.1" id="Layer_1" xmlns="http://www.w3.org/2000/svg" xmlns:xlink="http://www.w3.org/1999/xlink" x="0px" y="0px"
	 width="512px" height="512px" viewBox="0 0 512 512" enable-background="new 0 0 512 512" xml:space="preserve">
<path fill="#000100" d="M147.8,512.087h216.336c55.883,0,101.573-45.597,101.573-101.573V297.17
	c0-47.016-32.564-86.742-76.109-98.229c0.694-7.353,1.199-14.925,1.199-22.688c0-97.25-60.331-176.167-134.863-176.167
	c-61.215,0-112.9,53.421-129.31,126.659h57.901c11.99-38.181,39.411-64.812,71.407-64.812c43.041,0,77.939,48.057,77.939,107.631
	c0,9.024-0.979,17.671-2.431,26.032H147.8c-55.853,0-101.51,45.722-101.51,101.573v113.344
	C46.29,466.49,91.949,512.087,147.8,512.087z M255.937,262.775c32.186,0,58.281,26.127,58.281,58.25
	c0,23.286-13.854,43.292-33.669,52.632v32.438c0,27.895-11.075,50.803-24.612,50.803c-13.411,0-24.581-22.908-24.581-50.803v-32.438
	c-19.814-9.34-33.574-29.346-33.574-52.632C197.782,288.902,223.814,262.775,255.937,262.775z"/>
</svg>
