<?xml version="1.0" encoding="utf-8"?>
<!-- Generator: Adobe Illustrator 17.0.0, SVG Export Plug-In . SVG Version: 6.00 Build 0)  -->
<!DOCTYPE svg PUBLIC "-//W3C//DTD SVG 1.1//EN" "http://www.w3.org/Graphics/SVG/1.1/DTD/svg11.dtd">
<svg version="1.1" id="Layer_1" xmlns="http://www.w3.org/2000/svg" xmlns:xlink="http://www.w3.org/1999/xlink" x="0px" y="0px"
	 width="512px" height="512px" viewBox="0 0 512 512" enable-background="new 0 0 512 512" xml:space="preserve">
<g>
	<path fill="#1D1D1B" d="M425.911,103.302c-13.344-13.345-34.906-13.345-48.25,0c-13.346,13.344-13.346,34.938,0,48.282
		c66.626,66.597,66.626,174.725,0,241.352c-66.658,66.659-174.725,66.659-241.353,0c-66.627-66.627-66.627-174.755,0-241.352
		c13.313-13.344,13.313-34.938,0-48.282c-13.375-13.345-34.938-13.345-48.313,0c-93.252,93.283-93.252,244.632,0.03,337.885
		c93.284,93.315,244.633,93.315,337.885,0C519.228,347.935,519.228,196.586,425.911,103.302z"/>
	<path fill="#1D1D1B" d="M256.97-0.826c-18.876,0-34.126,15.282-34.126,34.126v204.819c0,18.875,15.25,34.125,34.126,34.125
		s34.126-15.25,34.126-34.125V33.3C291.096,14.456,275.846-0.826,256.97-0.826z"/>
</g>
</svg>
