<?xml version="1.0" encoding="utf-8"?>
<!-- Generator: Adobe Illustrator 17.0.0, SVG Export Plug-In . SVG Version: 6.00 Build 0)  -->
<!DOCTYPE svg PUBLIC "-//W3C//DTD SVG 1.1//EN" "http://www.w3.org/Graphics/SVG/1.1/DTD/svg11.dtd">
<svg version="1.1" id="Layer_1" xmlns="http://www.w3.org/2000/svg" xmlns:xlink="http://www.w3.org/1999/xlink" x="0px" y="0px"
	 width="512px" height="512px" viewBox="0 0 512 512" enable-background="new 0 0 512 512" xml:space="preserve">
<g>
	<path fill="#000100" d="M257.066,351.99c70.443,0,96.006-28.813,96.006-96.005v-64.004c0-11.767,9.628-32.002,32.003-32.002
		c22.438,0,32.002,20.235,32.002,32.002v64.004c0,103.443-44.783,160.009-128.009,160.009v32.002h74.693
		c11.75,0,21.312,20.252,21.312,32.002c0,11.814-9.562,32.002-21.312,32.002H257.066 M257.066,351.99
		c-70.394,0-95.989-28.813-95.989-96.005v-64.004c0-11.767-9.595-32.002-32.002-32.002s-32.003,20.235-32.003,32.002v64.004
		c0,103.443,44.801,160.009,128.009,160.009v32.002h-74.66c-11.782,0-21.345,20.252-21.345,32.002
		c0,11.814,9.562,32.002,21.345,32.002h106.646"/>
	<path fill="#000100" d="M193.125,192.012H321.07v76.771c0,35.33-28.627,51.205-64.004,51.205
		c-35.313,0-63.987-15.875-63.987-51.205L193.125,192.012z"/>
	<path fill="#000100" d="M193.125,159.979H321.07V63.958C321.07,28.627,292.443,0,257.066,0c-35.313,0-63.987,28.627-63.987,63.957
		L193.125,159.979z"/>
</g>
</svg>
