<?xml version="1.0" encoding="utf-8"?>
<!-- Generator: Adobe Illustrator 17.0.0, SVG Export Plug-In . SVG Version: 6.00 Build 0)  -->
<!DOCTYPE svg PUBLIC "-//W3C//DTD SVG 1.1//EN" "http://www.w3.org/Graphics/SVG/1.1/DTD/svg11.dtd">
<svg version="1.1" id="Layer_1" xmlns="http://www.w3.org/2000/svg" xmlns:xlink="http://www.w3.org/1999/xlink" x="0px" y="0px"
	 width="512px" height="512px" viewBox="0 0 512 512" enable-background="new 0 0 512 512" xml:space="preserve">
<path id="Profile" fill="#1D1D1B" d="M449,352c-32-32-64-32-64-32l-46.938-37.875l-24.281-0.03L307.375,256
	c7.405-10.703,24.469-37.094,29.594-50.594c9.219,1.984,22.094-0.75,20.344-32.969c21.125-52,2.062-58.469-9.125-58.375
	C346.125,48.906,333.25,0,257.031,0c-76.25,0-89.141,48.922-91.202,114.109c-10.906-0.547-32.173,4.422-10.25,58.328
	c-1.798,32.938,11.641,35.047,20.905,32.812c5.203,14.609,23.22,39.234,30.875,50.75l-6.78,26.031L175.016,282L129,320
	c0,0-32.017,0-64,32C33.016,384,1,512,1,512h512C513,512,481,384,449,352z"/>
</svg>
