<?xml version="1.0" encoding="utf-8"?>
<!-- Generator: Adobe Illustrator 17.0.0, SVG Export Plug-In . SVG Version: 6.00 Build 0)  -->
<!DOCTYPE svg PUBLIC "-//W3C//DTD SVG 1.1//EN" "http://www.w3.org/Graphics/SVG/1.1/DTD/svg11.dtd">
<svg version="1.1" id="Layer_1" xmlns="http://www.w3.org/2000/svg" xmlns:xlink="http://www.w3.org/1999/xlink" x="0px" y="0px"
	 width="512px" height="512px" viewBox="0 0 512 512" enable-background="new 0 0 512 512" xml:space="preserve">
<path fill="#1D1D1B" d="M512.016,444.139L357.261,289.384c16.876-28.562,26.751-61.782,26.751-97.378
	C384.012,85.971,298.071,0,192.006,0C85.955,0,0,85.971,0,192.006s85.955,192.007,192.006,192.007
	c35.579,0,68.783-9.875,97.378-26.72l154.724,154.724L512.016,444.139z M64.002,192.006c0-70.688,57.313-128.004,128.004-128.004
	c70.689,0,128.004,57.314,128.004,128.004s-57.315,128.005-128.004,128.005C121.317,320.01,64.002,262.695,64.002,192.006z"/>
</svg>
