<?xml version="1.0" encoding="utf-8"?>
<!-- Generator: Adobe Illustrator 17.0.0, SVG Export Plug-In . SVG Version: 6.00 Build 0)  -->
<!DOCTYPE svg PUBLIC "-//W3C//DTD SVG 1.1//EN" "http://www.w3.org/Graphics/SVG/1.1/DTD/svg11.dtd">
<svg version="1.1" id="Layer_1" xmlns="http://www.w3.org/2000/svg" xmlns:xlink="http://www.w3.org/1999/xlink" x="0px" y="0px"
	 width="512px" height="512px" viewBox="0 0 512 512" enable-background="new 0 0 512 512" xml:space="preserve">
<g id="Icon">
	<path fill="#1D1D1B" d="M512,113.25c-18.846,8.375-39.062,14-60.312,16.531c21.688-13,38.312-33.562,46.188-58.094
		c-20.312,12.032-42.812,20.782-66.718,25.469C412,76.75,384.688,64,354.5,64c-58.031,0-105.062,47.032-105.062,105.031
		c0,8.25,0.938,16.25,2.718,23.938c-87.297-4.375-164.702-46.188-216.516-109.75c-9.031,15.53-14.218,33.562-14.218,52.812
		c0,36.438,18.547,68.594,46.735,87.438c-17.22-0.532-33.423-5.281-47.579-13.156c-0.017,0.468-0.017,0.906-0.017,1.343
		c0,50.875,36.219,93.344,84.267,103c-8.812,2.406-18.095,3.688-27.673,3.688c-6.765,0-13.358-0.656-19.765-1.906
		c13.359,41.75,52.156,72.125,98.125,72.969c-35.954,28.156-81.25,44.97-130.454,44.97c-8.483,0-16.844-0.5-25.062-1.47
		c46.484,29.781,101.703,47.188,161.015,47.188c193.235,0,298.86-160.062,298.86-298.875c0-4.563-0.095-9.095-0.312-13.595
		C480.125,152.812,497.937,134.312,512,113.25z"/>
</g>
</svg>
