<?xml version="1.0" encoding="utf-8"?>
<!-- Generator: Adobe Illustrator 17.0.0, SVG Export Plug-In . SVG Version: 6.00 Build 0)  -->
<!DOCTYPE svg PUBLIC "-//W3C//DTD SVG 1.1//EN" "http://www.w3.org/Graphics/SVG/1.1/DTD/svg11.dtd">
<svg version="1.1" id="Layer_1" xmlns="http://www.w3.org/2000/svg" xmlns:xlink="http://www.w3.org/1999/xlink" x="0px" y="0px"
	 width="512px" height="512px" viewBox="0 0 512 512" enable-background="new 0 0 512 512" xml:space="preserve">
<path fill="#1D1D1B" d="M448,0H64C28.656,0,0,28.656,0,64v384c0,35.346,28.654,64,64,64h384c35.344,0,64-28.654,64-64V64
	C512,28.656,483.344,0,448,0z M412.625,175.656c0.125,3.469,0.219,6.938,0.219,10.438c0,106.812-81.281,229.938-229.922,229.938
	c-45.625,0-88.094-13.375-123.859-36.312c6.328,0.75,12.75,1.125,19.281,1.125c37.844,0,72.688-12.906,100.359-34.562
	c-35.375-0.654-65.221-24.029-75.484-56.156c4.922,0.971,10,1.471,15.203,1.471c7.357,0,14.5-1,21.281-2.812
	c-36.953-7.438-64.828-40.125-64.828-79.25c0-0.344,0-0.688,0.016-1.031c10.893,6.031,23.359,9.721,36.609,10.096
	c-21.688-14.471-35.953-39.221-35.953-67.25c0-14.812,3.982-28.688,10.938-40.625c39.859,48.904,99.406,81.062,166.578,84.438
	c-1.404-5.938-2.125-12.062-2.125-18.438c0-44.596,36.188-80.781,80.812-80.781c23.25,0,44.25,9.812,59,25.5
	c18.375-3.594,35.688-10.344,51.312-19.594c-6.062,18.875-18.875,34.688-35.531,44.688c16.346-1.938,31.906-6.25,46.406-12.688
	C442.125,150.031,428.406,164.281,412.625,175.656z"/>
</svg>
