<?xml version="1.0" encoding="utf-8"?>
<!-- Generator: Adobe Illustrator 16.0.0, SVG Export Plug-In . SVG Version: 6.00 Build 0)  -->
<!DOCTYPE svg PUBLIC "-//W3C//DTD SVG 1.1//EN" "http://www.w3.org/Graphics/SVG/1.1/DTD/svg11.dtd">
<svg version="1.1" id="Layer_1" xmlns="http://www.w3.org/2000/svg" xmlns:xlink="http://www.w3.org/1999/xlink" x="0px" y="0px"
	 width="512px" height="512px" viewBox="0 0 512 512" enable-background="new 0 0 512 512" xml:space="preserve">
<g id="Contact_Card">
	<g>
		<rect x="385" y="0" fill="#12110B" width="64" height="96"/>
		<rect x="65" y="0" fill="#12110B" width="64" height="96"/>
	</g>
	<path fill="#12110B" d="M481,64v64H353V64H161v64H33V64H1v448h512V64H481z M229,416H65v-46.875c0,0,0.125-27.625,57.5-33.844
		c-13.062-11.906-22.375-33.219-22.375-59.844c0-46.875,46.875-46.875,46.875-46.875s46.875,0,46.875,46.875
		c0,26.625-9.312,47.938-22.375,59.844c57.375,6.219,57.5,33.844,57.5,33.844V416z M449,416H289v-32h160V416z M449,352H289v-32h160
		V352z M449,288H289v-32h160V288z"/>
</g>
</svg>
