<?xml version="1.0" encoding="utf-8"?>
<!-- Generator: Adobe Illustrator 17.0.0, SVG Export Plug-In . SVG Version: 6.00 Build 0)  -->
<!DOCTYPE svg PUBLIC "-//W3C//DTD SVG 1.1//EN" "http://www.w3.org/Graphics/SVG/1.1/DTD/svg11.dtd">
<svg version="1.1" id="Layer_1" xmlns="http://www.w3.org/2000/svg" xmlns:xlink="http://www.w3.org/1999/xlink" x="0px" y="0px"
	 width="512px" height="512px" viewBox="0 0 512 512" enable-background="new 0 0 512 512" xml:space="preserve">
<g>
	<path fill="#000000" d="M256,51.766c-141.375,0-256,204.219-256,204.219s114.625,204.25,256,204.25s256-204.25,256-204.25
		S397.375,51.766,256,51.766z M259.375,382.984C186.25,382.984,127,323.673,127,250.579c0-73.125,59.25-132.375,132.375-132.375
		s132.375,59.25,132.375,132.375C391.75,323.673,332.5,382.984,259.375,382.984z"/>
	<path fill="#000000" d="M311.594,257.609c0,30.75-24.906,55.625-55.594,55.625s-55.595-24.875-55.595-55.625
		c0-30.718,24.906-55.593,55.595-55.593C286.688,202.016,311.594,226.891,311.594,257.609z"/>
</g>
</svg>
