<?xml version="1.0" encoding="utf-8"?>
<!-- Generator: Adobe Illustrator 16.0.0, SVG Export Plug-In . SVG Version: 6.00 Build 0)  -->
<!DOCTYPE svg PUBLIC "-//W3C//DTD SVG 1.1//EN" "http://www.w3.org/Graphics/SVG/1.1/DTD/svg11.dtd">
<svg version="1.1" id="Layer_1" xmlns="http://www.w3.org/2000/svg" xmlns:xlink="http://www.w3.org/1999/xlink" x="0px" y="0px"
	 width="512px" height="512px" viewBox="0 0 512 512" enable-background="new 0 0 512 512" xml:space="preserve">
<path fill="#1D1D1B" d="M480,384c0,0-64-128-64-256c0-41.219-26.812-86.875-128.25-94.703c0-0.452,0.25-0.827,0.25-1.297
	c0-17.672-14.345-32-32-32c-17.656,0-32,14.328-32,32c0,0.47,0.25,0.845,0.25,1.297C122.812,41.125,96,86.781,96,128
	c0,128-64,256-64,256s-32,0-32,32s32,32,32,32h32h128c0,35.345,28.655,64,64,64c35.344,0,64-28.655,64-64h128h32c0,0,32,0,32-32
	S480,384,480,384z"/>
</svg>
