<?xml version="1.0" encoding="utf-8"?>
<!-- Generator: Adobe Illustrator 17.0.0, SVG Export Plug-In . SVG Version: 6.00 Build 0)  -->
<!DOCTYPE svg PUBLIC "-//W3C//DTD SVG 1.1//EN" "http://www.w3.org/Graphics/SVG/1.1/DTD/svg11.dtd">
<svg version="1.1" id="Layer_1" xmlns="http://www.w3.org/2000/svg" xmlns:xlink="http://www.w3.org/1999/xlink" x="0px" y="0px"
	 width="512px" height="512px" viewBox="0 0 512 512" enable-background="new 0 0 512 512" xml:space="preserve">
<g>
	<path fill="#000100" d="M352,96h160V32H352V0H224v32H0v64h224v32h128V96z M256,96V32h64v64H256z"/>
	<path fill="#000100" d="M384,480h128v-64H384v-32H256v32H0v64h256v32h128V480z M288,480v-64h64v64H288z"/>
	<path fill="#000100" d="M224,288h288v-64H224v-32H96v32H0v64h96v32h128V288z M128,288v-64h64v64H128z"/>
</g>
</svg>
