<?xml version="1.0" encoding="utf-8"?>
<!-- Generator: Adobe Illustrator 17.0.0, SVG Export Plug-In . SVG Version: 6.00 Build 0)  -->
<!DOCTYPE svg PUBLIC "-//W3C//DTD SVG 1.1//EN" "http://www.w3.org/Graphics/SVG/1.1/DTD/svg11.dtd">
<svg version="1.1" id="Layer_1" xmlns="http://www.w3.org/2000/svg" xmlns:xlink="http://www.w3.org/1999/xlink" x="0px" y="0px"
	 width="512px" height="512px" viewBox="0 0 512 512" enable-background="new 0 0 512 512" xml:space="preserve">
<g>
	<path fill="#000100" d="M96,0H32v160H0v128h32v224h64V288h32V160H96V0z M96,256H32v-64h64V256z"/>
	<path fill="#000100" d="M480,128V0h-64v128h-32v128h32v256h64V256h32V128H480z M480,224h-64v-64h64V224z"/>
	<path fill="#000100" d="M288,0h-64v288h-32v128h32v96h64v-96h32V288h-32V0z M288,384h-64v-64h64V384z"/>
</g>
</svg>
