<?xml version="1.0" encoding="utf-8"?>
<!-- Generator: Adobe Illustrator 16.0.0, SVG Export Plug-In . SVG Version: 6.00 Build 0)  -->
<!DOCTYPE svg PUBLIC "-//W3C//DTD SVG 1.1//EN" "http://www.w3.org/Graphics/SVG/1.1/DTD/svg11.dtd">
<svg version="1.1" id="Layer_1" xmlns="http://www.w3.org/2000/svg" xmlns:xlink="http://www.w3.org/1999/xlink" x="0px" y="0px"
	 width="512px" height="512px" viewBox="0 0 512 512" enable-background="new 0 0 512 512" xml:space="preserve">
<g id="Icon">
	<path fill="#1D1D1B" d="M448,0H64C28.656,0,0,28.656,0,64v384c0,35.345,28.655,64,64,64h384c35.344,0,64-28.655,64-64V64
		C512,28.656,483.344,0,448,0z M434.547,287.219h-70.344v188.219h-71.656V287.219h-49.767v-67.781h49.767c0,0,0-27.781,0-57.875
		c0-45.5,29.406-87.281,97.141-87.281c27.438,0,47.719,2.625,47.719,2.625l-1.594,63.312c0,0-20.688-0.22-43.266-0.22
		c-24.422,0-28.344,11.281-28.344,29.97c0,2.405,0,3.188,0,3.155c0,5.25,0,18,0,46.312h73.547L434.547,287.219z"/>
</g>
</svg>
