<?xml version="1.0" encoding="utf-8"?>
<!-- Generator: Adobe Illustrator 16.0.0, SVG Export Plug-In . SVG Version: 6.00 Build 0)  -->
<!DOCTYPE svg PUBLIC "-//W3C//DTD SVG 1.1//EN" "http://www.w3.org/Graphics/SVG/1.1/DTD/svg11.dtd">
<svg version="1.1" id="Layer_1" xmlns="http://www.w3.org/2000/svg" xmlns:xlink="http://www.w3.org/1999/xlink" x="0px" y="0px"
	 width="512px" height="512px" viewBox="0 0 512 512" enable-background="new 0 0 512 512" xml:space="preserve">
<g>
	<path fill="#1D1D1B" d="M286.67,126.102c0,0.093,0-0.937,0-3.959c0-23.943,5.02-38.315,36.164-38.315
		c28.836,0,55.18,0.312,55.18,0.312l2.09-80.838c0,0-25.877-3.306-60.949-3.306c-86.419,0-123.923,53.279-123.923,111.422
		c0,38.409,0,73.825,0,73.825h-63.537v86.513h63.537v240.241h91.439V271.755h89.815l4.054-86.513h-93.87
		C286.67,149.078,286.67,132.835,286.67,126.102z"/>
</g>
</svg>
