<?xml version="1.0" encoding="utf-8"?>
<!-- Generator: Adobe Illustrator 17.0.0, SVG Export Plug-In . SVG Version: 6.00 Build 0)  -->
<!DOCTYPE svg PUBLIC "-//W3C//DTD SVG 1.1//EN" "http://www.w3.org/Graphics/SVG/1.1/DTD/svg11.dtd">
<svg version="1.1" id="Layer_1" xmlns="http://www.w3.org/2000/svg" xmlns:xlink="http://www.w3.org/1999/xlink" x="0px" y="0px"
	 width="512px" height="512px" viewBox="0 0 512 512" enable-background="new 0 0 512 512" xml:space="preserve">
<g>
	<path fill="#1D1D1B" d="M402.747,500.746c-3.876,0-7.688-1.188-10.939-3.562l-135.816-98.629l-135.787,98.629
		c-6.531,4.75-15.345,4.75-21.846,0c-6.562-4.719-9.25-13.126-6.78-20.783l51.877-159.631L7.668,218.11
		c-6.531-4.734-9.25-13.141-6.75-20.798c2.469-7.656,9.626-12.844,17.688-12.844h167.819l51.877-159.647
		c2.5-7.657,9.626-12.845,17.688-12.845s15.188,5.188,17.688,12.845l51.877,159.647h167.85c8.064,0,15.222,5.188,17.689,12.844
		c2.469,7.657-0.219,16.063-6.75,20.798l-135.787,98.66l51.878,159.63c2.469,7.657-0.25,16.064-6.782,20.783
		C410.402,499.559,406.56,500.746,402.747,500.746z"/>
</g>
</svg>
