<?xml version="1.0" encoding="utf-8"?>
<!-- Generator: Adobe Illustrator 17.0.0, SVG Export Plug-In . SVG Version: 6.00 Build 0)  -->
<!DOCTYPE svg PUBLIC "-//W3C//DTD SVG 1.1//EN" "http://www.w3.org/Graphics/SVG/1.1/DTD/svg11.dtd">
<svg version="1.1" id="Layer_1" xmlns="http://www.w3.org/2000/svg" xmlns:xlink="http://www.w3.org/1999/xlink" x="0px" y="0px"
	 width="512px" height="512px" viewBox="0 0 512 512" enable-background="new 0 0 512 512" xml:space="preserve">
<path fill="#12110B" d="M257,0C115.609,0,1,114.594,1,256c0,141.375,114.607,256,256,256c141.375,0,256-114.625,256-256
	C513,114.594,398.375,0,257,0z M448,256c0,31.503-7.588,61.234-21.035,87.466L168.535,85.035C194.766,71.588,224.497,64,256,64
	C362.039,64,448,149.961,448,256z M256,448c-106.039,0-192-85.961-192-192c0-31.503,7.588-61.234,21.035-87.465l258.431,258.43
	C317.235,440.412,287.504,448,256,448z"/>
</svg>
