<?xml version="1.0" encoding="utf-8"?>
<!-- Generator: Adobe Illustrator 16.0.0, SVG Export Plug-In . SVG Version: 6.00 Build 0)  -->
<!DOCTYPE svg PUBLIC "-//W3C//DTD SVG 1.1//EN" "http://www.w3.org/Graphics/SVG/1.1/DTD/svg11.dtd">
<svg version="1.1" id="Layer_1" xmlns="http://www.w3.org/2000/svg" xmlns:xlink="http://www.w3.org/1999/xlink" x="0px" y="0px"
	 width="512px" height="512px" viewBox="0 0 512 512" enable-background="new 0 0 512 512" xml:space="preserve">
<path fill="#1D1D1B" d="M435.812,0H76.188C34.156,0,0,34.125,0,76.156v359.688C0,477.875,34.156,512,76.188,512h359.625
	C477.844,512,512,477.875,512,435.844V183.25v-36.375V76.156C512,34.125,477.844,0,435.812,0z M479.562,174.25L272.031,349.344
	c-4.655,3.78-8.844-0.095-8.844-0.095l-76.344-61.438c-9.281,3.562-19.156,5.5-29.219,5.5c-23.97,0-46.625-10.438-62.156-28.594
	c-14.219-16.625-21.125-37.781-19.406-59.595c1.688-21.78,11.75-41.562,28.375-55.78c14.781-12.656,33.688-19.625,53.125-19.625
	c24,0,46.625,10.405,62.22,28.594c21.03,24.594,24.625,58.125,12.438,85.969c16.375,21.469,29.031,38.031,29.656,38.781
	c1.875,2.188,6.562,5.375,11.938-0.625L453.25,36.094c15.469,6.75,26.312,22.155,26.312,40.062V174.25z"/>
</svg>
