<?xml version="1.0" encoding="utf-8"?>
<!-- Generator: Adobe Illustrator 17.0.0, SVG Export Plug-In . SVG Version: 6.00 Build 0)  -->
<!DOCTYPE svg PUBLIC "-//W3C//DTD SVG 1.1//EN" "http://www.w3.org/Graphics/SVG/1.1/DTD/svg11.dtd">
<svg version="1.1" id="Layer_1" xmlns="http://www.w3.org/2000/svg" xmlns:xlink="http://www.w3.org/1999/xlink" x="0px" y="0px"
	 width="512px" height="512px" viewBox="0 0 512 512" enable-background="new 0 0 512 512" xml:space="preserve">
<path fill="#12110B" d="M257,0C115.609,0,1,114.594,1,256c0,141.375,114.608,256,256,256c141.375,0,256-114.625,256-256
	C513,114.594,398.375,0,257,0z M256.781,408.25c-21.219,0-38.28-17.062-38.28-38.28c0-21.22,17.062-38.25,38.28-38.25
	c21.22,0,38.281,17.03,38.281,38.25C295.062,391.188,278,408.25,256.781,408.25z M304.188,267.625
	c-12.875,10-16.188,19.562-16.188,28.72v12.062h-62.422v-18.312c0-16.625,4.155-27.438,14.562-37.438
	c30.797-29.531,53.234-43.25,53.234-62.406c0-18.28-12.875-29.125-29.938-29.125c-25.797,0-39.531,16.656-41.188,37.031L158.188,194
	c5.812-58.655,46.172-90.28,104-90.28c50.75,0,93.625,28.312,93.625,81.969C355.812,217.312,343.719,236.438,304.188,267.625z"/>
</svg>
