<?xml version="1.0" encoding="utf-8"?>
<!-- Generator: Adobe Illustrator 17.0.0, SVG Export Plug-In . SVG Version: 6.00 Build 0)  -->
<!DOCTYPE svg PUBLIC "-//W3C//DTD SVG 1.1//EN" "http://www.w3.org/Graphics/SVG/1.1/DTD/svg11.dtd">
<svg version="1.1" id="Layer_1" xmlns="http://www.w3.org/2000/svg" xmlns:xlink="http://www.w3.org/1999/xlink" x="0px" y="0px"
	 width="512px" height="512px" viewBox="0 0 512 512" enable-background="new 0 0 512 512" xml:space="preserve">
<g>
	<path fill="#000100" d="M148.585,256.734c29.436,0,53.309-23.874,53.309-53.325c0-29.467-23.873-53.34-53.309-53.34
		c-29.437,0-53.311,23.873-53.311,53.34C95.275,232.86,119.149,256.734,148.585,256.734z"/>
	<path fill="#000100" d="M361.915,240.454c-63.996,0-85.338,85.323-127.992,85.323c-42.653,0-42.653-21.312-85.338-21.312
		c-42.654,0-85.309,63.996-85.309,63.996h383.978C447.254,368.463,425.91,240.454,361.915,240.454z"/>
	<g>
		<path fill="#000100" d="M512,431.771H0V80.229h512V431.771z M31.998,399.772h448.004V112.228H31.998V399.772z"/>
	</g>
</g>
</svg>
