<?xml version="1.0" encoding="utf-8"?>
<!-- Generator: Adobe Illustrator 16.0.0, SVG Export Plug-In . SVG Version: 6.00 Build 0)  -->
<!DOCTYPE svg PUBLIC "-//W3C//DTD SVG 1.1//EN" "http://www.w3.org/Graphics/SVG/1.1/DTD/svg11.dtd">
<svg version="1.1" id="Layer_1" xmlns="http://www.w3.org/2000/svg" xmlns:xlink="http://www.w3.org/1999/xlink" x="0px" y="0px"
	 width="512px" height="512px" viewBox="0 0 512 512" enable-background="new 0 0 512 512" xml:space="preserve">
<g>
	<path fill="#000100" d="M314.9,247.513c0-31.988-25.926-57.863-57.899-57.863c-31.976,0-57.925,25.875-57.925,57.863
		c0,31.986,25.949,57.938,57.925,57.938C288.975,305.45,314.9,279.5,314.9,247.513z"/>
	<path fill="#000100" d="M385.675,246.087c0,71.063-57.625,128.738-128.675,128.738c-71.075,0-128.7-57.675-128.7-128.738
		c0-14.85,2.538-29.137,7.2-42.399H1V410.7C1,466.65,46.337,512,102.275,512h309.425C467.625,512,513,466.65,513,410.7V203.688
		H378.5C383.125,216.95,385.675,231.237,385.675,246.087z"/>
	<path fill="#000100" d="M411.699,0H102.275C46.337,0,1,45.325,1,101.3v57.125h161.825c23.5-25.225,56.987-41.074,94.175-41.074
		c37.175,0,70.649,15.85,94.175,41.074H513V101.3C513,45.325,467.625,0,411.699,0z M451.475,116.25
		c0,6.45-5.175,11.675-11.625,11.675H390c-6.476,0-11.65-5.225-11.65-11.675V66.413c0-6.425,5.176-11.649,11.65-11.649h49.85
		c6.45,0,11.625,5.225,11.625,11.649V116.25z"/>
</g>
</svg>
