<?xml version="1.0" encoding="utf-8"?>
<!-- Generator: Adobe Illustrator 16.0.0, SVG Export Plug-In . SVG Version: 6.00 Build 0)  -->
<!DOCTYPE svg PUBLIC "-//W3C//DTD SVG 1.1//EN" "http://www.w3.org/Graphics/SVG/1.1/DTD/svg11.dtd">
<svg version="1.1" id="Layer_1" xmlns="http://www.w3.org/2000/svg" xmlns:xlink="http://www.w3.org/1999/xlink" x="0px" y="0px"
	 width="512px" height="512px" viewBox="0 0 512 512" enable-background="new 0 0 512 512" xml:space="preserve">
<g>
	<path fill="#1D1D1B" d="M272.375,232.281V231.5c-0.156,0.25-0.375,0.531-0.531,0.781H272.375z"/>
	<path fill="#1D1D1B" d="M448,0H64C28.688,0,0,28.656,0,64v384c0,35.345,28.688,64,64,64h384c35.375,0,64-28.655,64-64V64
		C512,28.656,483.375,0,448,0z M155.75,425.375H80.688V199.5h75.062V425.375z M118.188,168.688h-0.438
		c-25.22,0-41.531-17.375-41.531-39c0-22.219,16.781-39.062,42.469-39.062c25.688,0,41.531,16.845,42,39.062
		C160.688,151.312,144.375,168.688,118.188,168.688z M426.438,425.375h-75.062V304.562c0-30.375-10.875-51.125-38.062-51.125
		c-20.719,0-33.062,14-38.469,27.5c-2,4.812-2.469,11.562-2.469,18.25v126.188h-75.095c0,0,0.97-204.688,0-225.875h75.095v32
		c10-15.375,27.75-37.28,67.625-37.28c49.405,0,86.438,32.28,86.438,101.655L426.438,425.375L426.438,425.375z"/>
</g>
</svg>
