<?xml version="1.0" encoding="utf-8"?>
<!-- Generator: Adobe Illustrator 17.0.0, SVG Export Plug-In . SVG Version: 6.00 Build 0)  -->
<!DOCTYPE svg PUBLIC "-//W3C//DTD SVG 1.1//EN" "http://www.w3.org/Graphics/SVG/1.1/DTD/svg11.dtd">
<svg version="1.1" id="Layer_1" xmlns="http://www.w3.org/2000/svg" xmlns:xlink="http://www.w3.org/1999/xlink" x="0px" y="0px"
	 width="512px" height="512px" viewBox="0 0 512 512" enable-background="new 0 0 512 512" xml:space="preserve">
<path fill="#000100" d="M389.984,184.608c-5.048-86.958-63.069-155.646-134-155.646c-70.896,0-128.889,68.688-133.875,155.646
	c-43.192,11.138-75.28,48.716-75.28,93.488v108.096c0,53.229,45.56,96.771,101.278,96.771H363.86
	c55.751,0,101.312-43.542,101.312-96.771V278.097C465.173,233.324,433.053,195.746,389.984,184.608z M280.563,350.854v31.048
	c0,26.629-11.044,48.337-24.579,48.337c-13.504,0-24.547-21.708-24.547-48.337v-31.048c-19.752-8.866-33.508-27.828-33.508-50.072
	c0-30.637,26.03-55.469,58.056-55.469c32.119,0,58.023,24.832,58.023,55.469C314.008,323.026,300.283,341.988,280.563,350.854z
	 M178.682,181.2c3.534-52.312,36.729-93.394,77.302-93.394c40.575,0,73.831,41.081,77.46,93.394H178.682z"/>
</svg>
