<?xml version="1.0" encoding="utf-8"?>
<!-- Generator: Adobe Illustrator 16.0.0, SVG Export Plug-In . SVG Version: 6.00 Build 0)  -->
<!DOCTYPE svg PUBLIC "-//W3C//DTD SVG 1.1//EN" "http://www.w3.org/Graphics/SVG/1.1/DTD/svg11.dtd">
<svg version="1.1" id="Layer_1" xmlns="http://www.w3.org/2000/svg" xmlns:xlink="http://www.w3.org/1999/xlink" x="0px" y="0px"
	 width="512px" height="512px" viewBox="0 0 512 512" enable-background="new 0 0 512 512" xml:space="preserve">
<path fill="#1D1D1B" d="M353,193v192c0,53.062-43,96-96,96s-96-42.938-96-96V97c0-35.375,28.655-64,64-64c35.344,0,64,28.625,64,64
	v256c0,17.688-14.345,32-32,32c-17.688,0-32-14.312-32-32V193h-32l0,0v160c0,35.375,28.625,64,64,64c35.312,0,64-28.625,64-64V97
	c0-53.03-43-96-96-96c-53.031,0-96,42.97-96,96v288c0,70.688,57.312,128,128,128c70.688,0,128-57.312,128-128V193H353z"/>
</svg>
