<?xml version="1.0" encoding="utf-8"?>
<!-- Generator: Adobe Illustrator 17.0.0, SVG Export Plug-In . SVG Version: 6.00 Build 0)  -->
<!DOCTYPE svg PUBLIC "-//W3C//DTD SVG 1.1//EN" "http://www.w3.org/Graphics/SVG/1.1/DTD/svg11.dtd">
<svg version="1.1" id="Layer_1" xmlns="http://www.w3.org/2000/svg" xmlns:xlink="http://www.w3.org/1999/xlink" x="0px" y="0px"
	 width="512px" height="512px" viewBox="0 0 512 512" enable-background="new 0 0 512 512" xml:space="preserve">
<path fill="#000100" d="M512,511.889c0,0,0-62.207,0-75.94c0-17.411-173.068-92.895-173.068-92.895s-33.111-31.08-33.111-52.327
	c0-21.199,32.261-50.653,46.513-87.196c8.271-21.262,13.541-109.184,5.729-131.22C338.365,16.874,286.075,0,255.474,0
	c-30.619,0-88.479,15.265-102.62,72.47c-8.9,35.879-2.494,109.958,5.792,131.172c14.378,36.748,46.401,68.017,46.401,87.258
	c0,19.228-28.961,51.146-28.961,51.146S0.535,418.712,0.14,435.948C-0.144,448.877,0.092,512,0.092,512L512,511.889z"/>
</svg>
