<?xml version="1.0" encoding="utf-8"?>
<!-- Generator: Adobe Illustrator 16.0.0, SVG Export Plug-In . SVG Version: 6.00 Build 0)  -->
<!DOCTYPE svg PUBLIC "-//W3C//DTD SVG 1.1//EN" "http://www.w3.org/Graphics/SVG/1.1/DTD/svg11.dtd">
<svg version="1.1" id="Layer_1" xmlns="http://www.w3.org/2000/svg" xmlns:xlink="http://www.w3.org/1999/xlink" x="0px" y="0px"
	 width="512px" height="512px" viewBox="0 0 512 512" enable-background="new 0 0 512 512" xml:space="preserve">
<path fill="#1D1D1B" d="M448,0H64C28.656,0,0,28.656,0,64v384c0,35.346,28.654,64,64,64h384c35.344,0,64-28.654,64-64V64
	C512,28.656,483.344,0,448,0z M105.25,447.25c-23.204,0-42-18.797-42-42s18.796-42,42-42c23.203,0,42,18.797,42,42
	S128.453,447.25,105.25,447.25z M207.25,447.25c0-79.522-64.478-144-144-144v-96c132.549,0,240,107.438,240,240H207.25z
	 M351.25,447.25c0-159.07-128.93-288-288-288v-96c212.062,0,384,171.938,384,384H351.25z"/>
</svg>
