<?xml version="1.0" encoding="utf-8"?>
<!-- Generator: Adobe Illustrator 17.0.0, SVG Export Plug-In . SVG Version: 6.00 Build 0)  -->
<!DOCTYPE svg PUBLIC "-//W3C//DTD SVG 1.1//EN" "http://www.w3.org/Graphics/SVG/1.1/DTD/svg11.dtd">
<svg version="1.1" id="Layer_1" xmlns="http://www.w3.org/2000/svg" xmlns:xlink="http://www.w3.org/1999/xlink" x="0px" y="0px"
	 width="512px" height="512px" viewBox="0 0 512 512" enable-background="new 0 0 512 512" xml:space="preserve">
<path fill="#000100" d="M446.224,142.957h-38.242l-35.067-35.117V69.63l65.146-65.18C403.62-5.832,364.718,2.598,337.403,29.866
	c-27,26.985-35.068,65.321-25.242,99.59L128.835,312.812c-33.187-7.974-69.575,0.597-95.478,26.498
	C8.335,364.365-0.864,399.186,5.792,431.43L67.8,369.452h38.115l35.164,35.103v38.241l-65.21,65.179
	c34.505,10.299,73.374,1.854,100.688-25.432c25.934-25.87,34.536-62.29,26.466-95.444l186.309-186.292
	c31.992,6.311,66.497-2.92,91.27-27.692c25.086-25.023,34.285-59.921,27.566-92.118L446.224,142.957z"/>
</svg>
