<?xml version="1.0" encoding="utf-8"?>
<!-- Generator: Adobe Illustrator 17.0.0, SVG Export Plug-In . SVG Version: 6.00 Build 0)  -->
<!DOCTYPE svg PUBLIC "-//W3C//DTD SVG 1.1//EN" "http://www.w3.org/Graphics/SVG/1.1/DTD/svg11.dtd">
<svg version="1.1" id="Layer_1" xmlns="http://www.w3.org/2000/svg" xmlns:xlink="http://www.w3.org/1999/xlink" x="0px" y="0px"
	 width="512px" height="512px" viewBox="0 0 512 512" enable-background="new 0 0 512 512" xml:space="preserve">
<path fill="#1D1D1B" d="M512,304v-96h-70.312c-4.5-17.578-11.438-34.141-20.438-49.391l49.688-49.688L403.063,41.03l-49.688,49.703
	c-15.25-9-31.812-15.906-49.375-20.438V0h-96v70.281c-17.562,4.531-34.125,11.453-49.375,20.453l-49.688-49.703l-67.875,67.875
	l49.688,49.703c-9,15.25-15.906,31.812-20.438,49.391H0v96h70.312c4.531,17.562,11.438,34.125,20.438,49.375l-49.72,49.688
	l67.906,67.875l49.688-49.688c15.25,9,31.812,15.938,49.375,20.438V512h96v-70.312c17.562-4.531,34.125-11.438,49.375-20.438
	l49.719,49.688l67.844-67.875l-49.688-49.688c9-15.25,15.938-31.812,20.438-49.375H512z M352,256c0,53-43,96-96,96s-96-43-96-96
	c0-53.016,43-96,96-96S352,202.984,352,256z"/>
</svg>
