<?xml version="1.0" encoding="utf-8"?>
<!-- Generator: Adobe Illustrator 16.0.0, SVG Export Plug-In . SVG Version: 6.00 Build 0)  -->
<!DOCTYPE svg PUBLIC "-//W3C//DTD SVG 1.1//EN" "http://www.w3.org/Graphics/SVG/1.1/DTD/svg11.dtd">
<svg version="1.1" id="Layer_1" xmlns="http://www.w3.org/2000/svg" xmlns:xlink="http://www.w3.org/1999/xlink" x="0px" y="0px"
	 width="512px" height="512px" viewBox="0 0 512 512" enable-background="new 0 0 512 512" xml:space="preserve">
<g>
	<g>
		<path fill="#1D1D1B" d="M289,66.562V32h32V0H193v32h32v34.562C116.484,82.125,33,175.188,33,288c0,123.72,100.28,224,224,224
			c123.719,0,224-100.28,224-224C481,175.188,397.5,82.125,289,66.562z M257,437.312c-82.438,0-149.312-66.875-149.312-149.312
			c0-82.437,66.874-149.312,149.312-149.312c82.438,0,149.312,66.874,149.312,149.312C406.312,370.438,339.438,437.312,257,437.312z
			"/>
	</g>
	<rect x="228.922" y="160" fill="#1D1D1B" width="56.141" height="160"/>
</g>
</svg>
