<?xml version="1.0" encoding="utf-8"?>
<!-- Generator: Adobe Illustrator 17.0.0, SVG Export Plug-In . SVG Version: 6.00 Build 0)  -->
<!DOCTYPE svg PUBLIC "-//W3C//DTD SVG 1.1//EN" "http://www.w3.org/Graphics/SVG/1.1/DTD/svg11.dtd">
<svg version="1.1" id="Layer_1" xmlns="http://www.w3.org/2000/svg" xmlns:xlink="http://www.w3.org/1999/xlink" x="0px" y="0px"
	 width="512px" height="512px" viewBox="0 0 512 512" enable-background="new 0 0 512 512" xml:space="preserve">
<g>
	<path fill="#000000" d="M357.25,289.375C374.125,260.812,384,227.594,384,192C384,85.969,298.062,0,192,0S0,85.969,0,192
		s85.938,192,192,192c35.562,0,68.78-9.875,97.375-26.719L444.094,512L512,444.125L357.25,289.375z M192,320
		c-70.688,0-128-57.312-128-128S121.312,64,192,64s128,57.312,128,128S262.688,320,192,320z"/>
	<polygon fill="#000000" points="213.344,128 170.656,128 170.656,170.656 128,170.656 128,213.344 170.656,213.344 170.656,256
		213.344,256 213.344,213.344 256,213.344 256,170.656 213.344,170.656"/>
</g>
</svg>
