<?xml version="1.0" standalone="no"?>
<!DOCTYPE svg PUBLIC "-//W3C//DTD SVG 20010904//EN"
 "http://www.w3.org/TR/2001/REC-SVG-20010904/DTD/svg10.dtd">
<svg version="1.0" xmlns="http://www.w3.org/2000/svg"
 width="700.000000pt" height="700.000000pt" viewBox="0 0 700.000000 700.000000"
 preserveAspectRatio="xMidYMid meet">
<metadata>
Created by potrace 1.11, written by Peter Selinger 2001-2013
</metadata>
<g transform="translate(0.000000,700.000000) scale(0.100000,-0.100000)"
fill="#000000" stroke="none">
<path d="M3350 6988 c-1541 -58 -2860 -1133 -3241 -2640 -108 -429 -130 -914
-63 -1378 20 -137 76 -383 121 -523 394 -1247 1460 -2175 2747 -2392 353 -59
746 -63 1116 -9 137 20 383 76 523 121 1247 394 2175 1460 2392 2747 59 353
63 746 9 1116 -20 137 -76 383 -121 523 -394 1247 -1459 2174 -2747 2392 -240
41 -463 54 -736 43z m-2540 -2738 c5 -8 10 -115 10 -236 l0 -222 73 26 c57 20
90 26 162 25 190 0 279 -57 323 -208 19 -67 31 -830 13 -864 -11 -21 -18 -21
-124 -19 l-112 3 -6 390 c-3 245 -9 399 -16 415 -21 48 -38 55 -149 55 -100 0
-105 -1 -131 -28 l-28 -27 -3 -392 c-2 -261 -6 -396 -14 -405 -14 -17 -209
-18 -226 -1 -9 9 -12 188 -12 744 0 669 1 734 17 749 22 23 208 18 223 -5z
m3971 10 c18 -10 19 -24 19 -241 0 -216 1 -231 18 -224 117 48 198 60 300 45
88 -12 137 -36 184 -88 71 -79 73 -95 73 -572 l0 -425 -109 -3 c-71 -2 -113 1
-122 9 -12 9 -14 78 -14 389 0 230 -4 388 -10 406 -6 16 -20 36 -33 43 -30 19
-152 26 -204 12 -77 -21 -77 -20 -81 -461 -3 -277 -7 -387 -15 -392 -14 -9
-189 -11 -211 -2 -14 6 -16 81 -16 754 0 704 1 749 18 753 35 9 184 7 203 -3z
m1715 -24 c11 -44 -3 -1177 -15 -1231 -41 -184 -156 -265 -376 -265 -129 0
-188 12 -256 53 -104 62 -153 176 -168 384 -15 212 10 426 59 524 28 54 95
107 160 126 82 24 222 21 288 -6 29 -11 55 -21 57 -21 3 0 5 96 5 214 0 118 3
221 6 230 5 13 25 16 120 16 112 0 114 0 120 -24z m-3471 -186 c3 -5 10 -49
16 -97 17 -148 -1 -132 152 -135 l132 -3 3 -107 3 -107 -133 -3 -133 -3 0
-280 c0 -310 1 -316 62 -342 28 -11 57 -13 129 -8 108 8 114 4 114 -89 0 -123
-30 -140 -230 -134 -123 4 -140 7 -188 31 -63 33 -107 89 -121 158 -12 55 -16
1111 -4 1122 10 11 191 8 198 -3z m-765 -225 c69 -18 109 -44 147 -93 65 -85
74 -167 71 -612 l-3 -365 -44 -3 c-66 -5 -83 3 -114 53 l-29 45 -46 -40 c-65
-57 -128 -74 -261 -68 -126 6 -178 24 -225 80 -49 57 -61 111 -60 273 0 161
14 207 78 263 54 47 127 64 306 71 l155 6 3 35 c5 58 -18 111 -58 134 -48 28
-231 29 -339 2 -72 -18 -75 -18 -88 -1 -8 11 -13 45 -13 86 0 83 19 111 87
129 118 30 328 33 433 5z m1947 -1 c70 -19 83 -40 83 -135 0 -99 -4 -103 -104
-84 -160 31 -277 11 -309 -52 -50 -96 -49 -430 1 -518 29 -49 73 -65 182 -64
52 0 119 4 148 8 73 10 82 0 82 -94 0 -91 -13 -109 -95 -130 -80 -21 -270 -21
-350 0 -115 30 -191 103 -226 218 -47 153 -47 496 1 649 39 127 136 202 285
218 91 11 236 3 302 -16z"/>
<path d="M6020 3609 c-81 -34 -103 -104 -103 -319 0 -115 4 -169 16 -212 28
-92 90 -128 195 -114 111 15 125 53 126 336 1 234 -4 260 -59 296 -30 20 -140
28 -175 13z"/>
<path d="M2020 3231 c-58 -8 -66 -14 -81 -58 -13 -41 -7 -160 11 -192 24 -45
149 -50 213 -7 53 35 78 97 75 186 l-3 75 -85 1 c-47 1 -105 -1 -130 -5z"/>
</g>
</svg>
